<?xml version="1.0" encoding="UTF-8"?><svg id="BACKGROUND_2" xmlns="http://www.w3.org/2000/svg" viewBox="0 0 190.01 287.97"><defs><style>.cls-1{fill:#8a6a3e;fill-rule:evenodd;}</style></defs><path class="cls-1" d="M11.09,175.29c-1.29,2.07-.31,4.66.96,6.51,1.68,2.46,6.31,5.66,8.95,2.86.09.32.17.65.25.99.17.77,1.17.65,1.3-.06.11-.6.09-1.24-.01-1.87.54.45,1.08.9,1.6,1.36,0,.06.02.12.01.19-.16,1.3-1.98,1.01-2.87.83-.41-.09-.55.6-.15.72,1.11.33,3.07.98,4.06,0,.15-.15.25-.33.36-.49,5.3,4.77,9.91,9.91,13.72,16.59.03.05.09.07.13.11,2.91,17.06,3.6,33.74-6.27,48.53-10.05,12.37-20.84,23.92-32.65,33.99-1.34,1.14.43,3.24,1.76,2.1,16.67-14.32,31.24-31.44,44.57-49.7.03-.02.08-.03.1-.07,6.88-10.93,23.81-13.66,36.51-16.19-.45.12-.38.84.11.89,8.52.85,14.13,5.05,20.29,9.71-.52.15-1.04.33-1.54.59-.71.37-.92,1.1-.66,1.83.73,2.01,1.89,3.88,3.4,5.4-.01.22.03.45.21.6,3.67,3.26,8.44,4.7,13.26,4.89.86.03,1.41-.66,1.33-1.49-.55-5.99-7.35-12.13-13.62-12.13-5.64-6.1-14.7-11.1-22.63-10.32,1.15-.23,2.27-.46,3.34-.69,12.01-2.61,23.08-3.12,34.49-1.28,0,.22.06.44.24.62.21.21.5.43.81.67-.35.53-.51,1.17-.32,1.93.68,2.65,4.99,3.89,7.18,4.46,1.36.35,3.46.44,5.62.2,2.84.15,5.75-.73,7.71-2.61.32-.31.38-.78.16-1.18.55-1.19.44-2.66-.73-4.49-3.72-5.79-13.88-5.52-19.15-1.53-6.35-1.36-12.74-1.5-19.15-.95.48-.2.94-.4,1.39-.6,2.67-1.17,5.88-2.38,8.43-4.11,4.99,1.05,10.26-3.06,12.99-6.81.44-.6-.02-1.42-.72-1.49-5.08-.56-10.32,3-13.45,6.77,0,0,0,.02,0,.03-2.44.97-4.78,2.57-7.06,3.61-3.28,1.5-6.54,2.58-10.07,3.34-.19.04-.32.23-.34.41-5.2.88-10.42,2.05-15.63,3.25-3.11.72-6.66,1.44-10.28,2.35,7.58-3.42,15.66-7.58,21.88-13.23.19.42.61.77,1.13.72,6.44-.61,14.14-4.88,16.53-11.11.31-.79-.32-1.64-1.13-1.72-4.19-.41-8.9,1.53-12.23,3.94-1.64,1.19-4.8,3.95-4.04,6.33-7.76,5.02-15.64,9.9-23.37,14.97-.18.12-.13.31,0,.43-5.8,1.53-11.65,3.62-16.04,7.11,15.51-22.05,29.41-45.41,43.11-67.36.76-1.22,1.49-2.47,2.25-3.7,6.13-3.63,12.31-6.39,18.57-8.63,4.05,1.51,7.43,3.64,10.5,7.09.94,1.06,1.86,2.14,2.79,3.2-1.72,1.46-2.71,3.86-2.38,6.24.35,2.55,1.95,4.79,4.08,6.2,1.69,1.11,4.47,2.46,6.88,2.41,1.25.23,2.5-.18,3.29-1.26,3.53-4.82-1.77-13.55-7.03-14.79-1.1-.26-2.13-.18-3.06.14-3.65-4.21-8.16-8.04-13.21-9.88,8.78-3,17.73-5.01,26.87-6.9,2.25,4.38,5.66,8.64,9.06,12.23-.97,1.28-1.39,2.72-1.33,4.22-.49.92-.66,2.04-.43,3.21.11.53.74.49.95.08.05-.11.11-.21.16-.31.27.64.59,1.26,1.01,1.86,1.78,2.58,5.27,5.96,8.68,5.83,4.65-.17,2.18-6.8.52-8.84-.21-.26-.48-.49-.71-.75-.63-2.56-4.16-5.41-6.1-6.81-.41-.29-.96-.24-1.34.06-.28.22-.51.47-.74.71-2.23-4.21-5.63-8.04-8.69-11.7,5.83-1.2,11.77-2.41,17.77-3.75.92.94,1.94,1.55,3.02,1.86,5.98,3.07,14.78,1.62,17.23-5.01.15-.39,0-.98-.39-1.19-2.05-1.09-4.09-1.47-6.12-1.48-4.83-1.67-10.74-.21-14.25,3.4-.13.13-.17.29-.22.44-.2.05-.35.22-.36.45-8.56,1.16-17.73,2.4-26.79,4.33,6.13-3.52,12.37-7.64,17.32-12.63.16.57.59.99,1.47,1.13.41.07.69-.3.75-.65.24-1.36-.18-2.21.78-3.54,1.15-1.59,2.54-2.98,4.07-4.21,1.8-1.44,3.89-3.09,6.15-4.07-1.51,2.06-3.29,3.87-5.25,5.48.4-.45.78-.91,1.2-1.36.25-.26-.07-.66-.37-.44-2.19,1.65-4.12,3.53-5.96,5.57-.6.67.37,1.72,1.12,1.32,5.07-2.67,9.61-6.82,12.5-11.78.43-.75-.11-1.67-1-1.54-4.74.67-9.5,4.67-12.66,7.99-.53.56-1.76,2.17-2.43,3.74-6.84,5.43-13.28,11-20.78,15.66-2.08.48-4.13,1.02-6.18,1.59,5.07-3.91,9.57-9.3,12.97-14.79.23.08.48.09.72-.06.71-.42,1.32-.92,1.95-1.39,1.5-.13,3.44-1.31,4.74-2.53,2.41-2.27,6.75-7.2,3.99-10.81-2.49-3.25-7.25.97-9.03,2.86-2.38,2.55-4.94,6.73-3.58,10.33-4.82,6.03-8.84,12.37-15.03,17.33-8.93,2.75-17.32,6.5-24.31,11.91,12.41-20.26,23.91-41,34.08-62.37,4.67-3.47,8.84-7.56,13.02-11.62,4.22-1.69,8.46-3.29,12.92-4.23,3.2-.67,6.42-.92,9.63-1.22.02.03.02.07.05.1.08.1.18.17.27.26-.16.33.11.8.56.75.03,0,.05-.01.07-.01-.38.3-.49.9-.01,1.26,4.51,3.4,12.57,5.14,16.43.13.3-.38.25-1-.07-1.36-4.31-4.95-11.14-5.14-16.86-2.86,0,0-.01.01-.02.02-6.96.12-14.49,2.26-20.88,5.13,1.77-1.7,3.55-3.37,5.4-4.97,6.88-5.97,14.08-10.66,21.99-14.76-.24.47-.21,1.2.32,1.47,6.26,3.23,13.68-1.87,14.58-8.43.07-.47-.3-1.07-.78-1.18-2.95-.72-5.7.21-8.1,1.98-1.15.84-3.03,2.12-4.07,3.57-6.49,2.17-12.65,5.67-18.42,9.98,3.42-4.24,6.7-8.64,9.96-13.01.1-.05.19-.1.25-.19.21-.31.42-.64.63-.98.25-.33.5-.66.74-.99.32-.08.64-.19.95-.35-.4.84.65,1.87,1.54,1.19,2.62-2,4.77-4.44,6.59-7.13.31-.3.61-.61.92-.92.15-.14.1-.37-.02-.5.98-1.61,1.88-3.27,2.63-5.01.25-.6-.27-1.48-.95-1.45-3.76.15-6.86,2.3-9.23,5.12-1.93,2.31-4.45,5.67-4.95,8.95-5.23,5.75-9.56,12.77-13.93,19.13-7.38,6.22-14.11,13.4-20.15,19.99,7.22-15.32,13.77-30.96,19.49-46.97.09-.01.18-.06.23-.16,2.39-4.64,5.47-9.06,8.77-13.1,1.82-2.24,3.91-4.44,5.79-6.75-.11,1.64.25,2.98,1.91,2.11,0,0,.01-.01.02-.02.26.22.58.35.91.18,4.94-2.45,9.14-7.61,9.35-13.28.02-.58-.41-1.17-1.03-1.2-4.93-.19-8.48,3.87-10.27,8.1-5.65,4.65-10.33,11.73-13.76,18.59,2.36-6.85,4.54-13.78,6.59-20.78,4.28-2.77,10.22-18.34,2.32-19.84-4.39-.83-6.18,6.52-6.65,9.51-.21,1.37-.5,11.22,2.79,10.84-3.67,8.68-7.13,17.45-10.49,26.27-.02-2.43-.2-4.88-.43-7.3-.43-4.34-.63-8.73-1.01-13.09.01,0,.03,0,.03-.02,3.5-3.62,8.62-18.26-.58-17.99-7.35.21-5.52,15.21-1.93,18.66.3.29.79.49,1.2.38.04,3.55.61,7.2.95,10.61.42,4.13.51,8.19.43,12.28-5.06,13.35-10.05,26.74-15.61,39.87-4.14,9.78-8.84,19.2-13.87,28.43,3.55-12.84,4.36-26.42,4.08-40.06.03-.03.07-.04.09-.08,2.15-4.38,4.99-9,7.01-13.78.17.13.37.21.58.28-.02.43,0,.86.11,1.3.23.88,1.21,1.04,1.77.39,4.14-4.81,6.95-12.79,3.41-18.72-.28-.47-.94-.9-1.49-.55-3.59,2.27-5.23,7.42-5.63,11.46-.11,1.05-.12,2.49.14,3.73-2.1,4.56-4.32,9.1-6.04,13.77-.29-10.24-1.13-20.5-1.85-30.51.04-.07.08-.12.11-.2.43.16.85.2,1.22-.03.31-.19.48-.52.32-.88-.17-.37-.4-.69-.66-1,1.49-3.7,2.28-8.18,2.44-11.71.16-3.35-1.08-9.71-6.02-7.62-5.68,2.4-3.06,13.75.28,18.86.09,1.12.15,2.23-.02,3.35-.08.49.3.79.72.86.14,10.54.77,20.96,1.06,31.37-1.62-4.38-4.38-8.45-7.32-12.19.98-1.09,1.44-2.65.84-4.06-1.68-3.94-7.86-6.53-11.9-6.62-.93-.02-1.53.84-1.17,1.71,1.18,2.9,5.97,11.04,10.15,9.85.18.08.36.12.56.11,3.28,4.92,7.32,9.1,8.89,14.75.23,12.42-.15,24.84-2.69,37.44-.03.15.06.25.18.31-7.86,14.3-16.49,28.16-25.12,42.13-5.08,8.22-10.21,16.65-15.45,25.13,7.81-17.87,8.79-37.71,8.34-57.65,1.18-3.67,2.38-7.36,4.29-10.72,1.49-2.61,3.24-4.85,5.13-7.05.22.52.77.93,1.35.79,2.74-.62,4.89-2.19,6.39-4.28,2.22-1.46,4-3.39,5.6-5.62.29-.4.25-.91,0-1.28.38-.87.47-1.81-.19-2.61-1.17-1.42-3.36-1.49-5.01-1.09-3.91.93-7.69,4.63-8.49,8.75-1.19,1.23-2.26,2.72-2.05,4.34.06.45.58.54.9.33.05-.03.09-.09.15-.13-3.86,3.9-6.55,9.26-8.17,14.67-.28-9.39-.78-18.76-.96-27.94.12-.19.26-.35.37-.55.03-.03.06-.05.08-.08,1.35-1.66,1.73-3.93,1.7-6.18.43-4-.1-8.31-1.52-10.99-.44-.83-.92-1.39-1.42-1.76-.23-.44-.44-.89-.72-1.29-.43-.61-1.52-.55-1.88.08-.24.4-.4.81-.61,1.21-2.16,1.33-4.03,4.81-4.21,7.14-.27,3.51-.03,8.14,2.22,11.07.91,1.18,2.33,1.96,3.72,1.98-.68,16.17.6,32.07.34,47.89-.71-1.99-1.66-3.95-2.8-5.87-2.89-4.9-5.94-9.64-8.79-14.53.37-.62.64-1.31.79-1.89,1.37-5.5-.89-10.76-6.47-12.58-1.77-.58-4.54-1.23-5.83.62-1.18,1.69-.7,4.01-.04,5.83,1.76,4.92,5.82,11.47,11.01,13.3.24.08.55.04.79-.09,3.94,6.2,9.68,11.98,11.24,18.72-.09,2.79-.22,5.58-.44,8.36-.05.15-.07.31-.13.46-.05.12,0,.21.06.28-.93,10.79-3.02,21.56-7.45,32.38-.04.1-.02.2.02.29-11.46,18.41-23.54,36.95-36.91,54.12,3.39-7.13,4.83-14.97,5.11-23.14,1.27-8,5.19-13.89,9.4-20.22.01.02.04.04.05.06-.02.06-.05.12-.07.18-.07.27.04.49.22.61-.18.35-.33.71-.54,1.05-.77.99.84,2.09,1.61,1.11.31-.4.58-.82.84-1.26,2.42.93,4.15-1.61,4.84-4.37,1.15-2.43,1.32-5.53.47-7.92-.23-.63-1.14-.94-1.71-.63-2.94,1.62-7.67,6.16-6.37,9.99-3.32,4.12-7,8.76-8.81,13.73-.32-6.95-1.32-14.05-2.55-21.12,1.28-7.11,3.11-13.34,5.91-19.59.87,1.2,2.05,2.14,3.54,2.02,2.62-.19,3.28-2.84,3.13-5.07,3.16-3.83,4.97-8.58,4.79-13.77-.03-.82-.58-1.3-1.39-1.26-6.38.37-13.65,8.76-11.51,15.21.1.31.24.65.38.99-2.81,4.94-4.91,10.2-5.88,15.76-1.75-9.27-3.71-18.35-4.99-26.84.14-.15.25-.33.26-.57,0-.13-.03-.27-.05-.4,2.3-1.78,3.24-6.84,3.28-9.03.04-2.48-1.51-9.11-5.04-8.83-2.97.23-2.61,6.01-2.52,7.91.11,2.2.33,4.41.83,6.57,0,1.13.09,2.26.46,3.36.09.27.47.26.62.05.09.17.18.35.29.49.66,12.17,3.78,24.78,6.16,37.27-2.66-5.32-7.43-9.9-12.47-13.73-.02-.37-.06-.74-.16-1.11-.85-3.28-3.34-6.82-6.34-8.48-2.15-1.19-6.86-2.04-8.46.53ZM33.85,158.2s-.03-.07-.04-.11c-.15-1.18-.35-2.39-.47-3.54-.01-.12-.06-.21-.13-.27.15-.67.17-1.37-.04-2.15-.1-.35-.33-.51-.58-.59-.24-2.16-.44-4.69.34-6.59.04-.09.04-.12.06-.17,0,0,0,0,0,0,.55.47.97,1.15,1.32,1.76.92,1.65,1.46,3.19,1.3,5.11-.15,1.73-.52,3.44-1.17,5.05-.15.36-.34.93-.58,1.49ZM51.5,169.02c.16-.37.25-.75.18-1.06,0,0,0,0,0-.01.28-.97.58-1.92,1.12-2.86.51-.89-.79-1.81-1.33-.92-.19.32-.38.65-.57.98.26-.45-.36-.89-.68-.46-1.17,1.54-2.28,3.13-3.32,4.75-.17-1.47.11-2.9,1.01-4.3,1.67-2.6,4.2-5.51,7.33-6.38-.16,4.02-1.63,7.26-3.72,10.29ZM47.51,171.81c-.04-.1-.05-.2-.1-.29.12-.24.26-.49.38-.73.1.13.26.2.39.03.36-.47.74-.92,1.11-1.39.07.65.68,1.15,1.24.93-.69.9-1.41,1.8-2.18,2.69-.41-.45-.74-1-.85-1.24ZM66.7,121.34c.37.17.68.39.93.63.18,1.34.56,2.63,1.04,3.89,0,.1-.02.21-.04.31-.18-.04-.35-.15-.51-.33h0c.33-.11.25-.59-.04-.7-.23-.08-.41-.19-.58-.3-.15-.32-.28-.64-.37-.9-.09-.24-.41-.17-.49.02-.39-.75-.27-1.67.05-2.64ZM70.17,124.28c-.05-.08-.09-.16-.14-.24-.07-2.16-1.12-4.1-3.58-4.8-.53-.15-.97.08-1.19.57-.34.75-.71,1.75-.85,2.75-.47-.69-.95-1.38-1.34-2.09-.75-1.38-4.23-8.04-.35-7.65,4.67.46,8.06,3.83,7.88,8.59-.04.92-.15,1.93-.43,2.86ZM80.27,89.81c-.35.19-.35.6-.07.85.36.31.74.57,1.06.88.1,1.43.27,2.84.53,4.24-.9-.26-1.8-1.25-2.27-2.69-.83-2.55-1.15-5.46-.78-8.11.04-.26.18-.77.4-1.38.15.03.3,0,.4-.17.71-1.31,1.61-2.46,2.52-3.6.71,1.41,1.28,3.08,1.68,4.82-.17.08-.31.21-.34.45-.24,1.91-.35,3.8-.5,5.7-.51-1.06-1.31-1.69-2.62-.99ZM98.24,103.59c.99-1.48,2.29-2.74,3.95-3.46,1.24-.53,3.02-1.18,4.35-.55.63.29.74.82.65,1.39-.2.05-.4.13-.6.19-.93-.7-2.48-.35-3.44-.03-1.71.57-3.39,1.43-4.91,2.46ZM111.8,65c-.63-.77-1.25-1.56-1.88-2.3-.39-.46-1.15.02-.88.56.11.22.24.43.35.65-.17-.02-.33.05-.41.19-2.05-1.43-3.65-3.34-4.92-5.55,1.9.42,3.84,1.29,5.33,2.26.97.63,2.88,1.81,2.74,3.2-.03.29-.15.66-.32.98ZM120.52,39.68c-.04-.6-.09-1.22-.12-1.82-.04-.61-1.05-.56-1.06.05-.01.51,0,1.02,0,1.53-.41-.99-.77-2.01-1.03-3.06-.48-1.94-2.24-9.53,1.23-9.92,3.88-.43,2.54,7.2.99,13.21ZM131.28,61.78c-.09.29-.18.57-.27.85-.05-.14-.07-.31-.1-.46.65-1.83,1.14-3.69,1.38-5.56.06-.49-.64-.59-.81-.17-.05.12-.11.23-.15.35.02-.07.04-.18.06-.24.56-2.1,1.35-4.81,2.98-6.46,1.82,4.41.17,9.58-2.35,13.57-.04,0-.07-.04-.1-.05-.03-.54.01-1.09.12-1.66.09-.44-.63-.58-.76-.16ZM146.97,16.63c.03.7.05,1.4.02,2.1-.01.19-.1,1.69-.27,2.69-.12.28-.22.56-.29.86-.02.01-.05.05-.07.05-.17-.07-.32.03-.38.17-.03-.11-.07-.23-.1-.34.05-.87.09-1.75.25-2.61.19-1.01.48-1.97.85-2.9ZM148.15,23.13c-.07-.18-.1-.34-.2-.53-.08-.17-.23-.23-.38-.25.29-.52.49-1.28.61-2.16.32-.54.71-1.07,1.17-1.6.2-.23-.19-.58-.4-.37-.24.25-.44.49-.65.74.17-2.26.02-4.72-.06-5.26-.1-.71-1.07-.88-1.45-.32-.78,1.15-1.42,2.45-1.89,3.82-.34-3.66.25-7.05,3.03-6.83,5.11.41,2.43,8.5.21,12.75ZM160.21,12.54c-.09.43.36.84.75.52.56-.46.96-1.05,1.37-1.64.23,2.32-.06,5.39-2.07,5.98-.25-.4-.47-.81-.56-1.27-.35-1.67-.41-3.38-.2-5.08.27-2.22.99-7.74,3.57-8.68,3.49-1.28,1.66,8.01,1.33,9.06-.05.15-.14.43-.26.79-.01-1.07-.15-2.1-.39-2.93-.17-.61-.89-.98-1.42-.52-1.16,1.01-1.8,2.27-2.12,3.77ZM177.73,16.29c-.59,4.08-3.43,7.29-6.67,9.74.06-.57.27-1.09.68-1.53.38-.53-.43-1.07-.82-.57-.11.13-.19.23-.29.35.51-1.4,1.05-2.84,1.23-3.13,1.38-2.24,3.24-4.41,5.86-4.86ZM179.92,42.44c-.82,1.69-1.79,3.27-2.84,4.78.26-.83-.72-1.5-1.35-.75-.65.78-1.28,1.56-1.93,2.32-.14-.11-.34-.15-.51-.02-.27.21-.53.46-.79.69,1.76-3.21,3.87-6.14,7.43-7.02ZM179.07,60.77c.63-.56,1.2-1.25,1.79-1.77.56-.49,1.17-.97,1.8-1.42,1.43-.73,2.98-1.19,4.6-1.31-1.38,3.1-4.81,4.66-8.19,4.5ZM172.52,78.89c2.42-.33,4.82-.54,7.18,0-2.26,1.27-4.92,1.22-7.18,0ZM147.43,117.46c-3.29,1.7-5.36,4.62-7.4,7.59-.05-.06-.12-.11-.19-.11.36-1.58,1.3-3.12,2.23-4.31,1.22-1.55,3.8-4.64,6.09-4.5,2.6.16.85,4.17-1.67,7.37.94-1.44,1.79-2.96,2.45-4.66.34-.88-.68-1.8-1.51-1.37ZM172.12,141.12c2.67-1.02,5.25-2.89,7.21-4.72.05-.04.08-.11.12-.17.56.13,1.12.34,1.69.57-1.67,3.22-5.34,4.55-9.01,4.32ZM166.03,139.16c.77-.18,1.53-.32,2.3-.51.56-.13.59-.74.29-1.05,2.85-.75,5.69-1.65,8.53-1.61-2.31,1.99-5.51,4.09-8.54,4.43-.92-.32-1.79-.73-2.58-1.25ZM154.46,160.95c.8-.64,1.79-.85,3.2-.25.75.32,1.42.77,2.03,1.27-.04.13-.1.26-.06.42.14.5.24.86.21,1.21-.12.09-.21.19-.37.27-.38.2-.37.6-.18.87-.18.26-.33.52-.32.88.01.37.29.68.68.61.63-.12,1.08-.38,1.4-.72.32-.24.59-.48.78-.97,0,0,0,0,0,0,.17.3.35.6.48.93.7,1.81,1.29,3.8-1.15,2.84-2.83-1.12-6.11-4.23-6.71-7.35ZM138.93,168.03c-1.19-.9-2.58-1.48-4.08-1.7.09-.16.11-.36-.01-.55-.73-1.09-1.55-2.19-2.41-3.28,1.91.08,4.01,1.74,5.19,3.4.41.58.89,1.33,1.32,2.13ZM135.09,172.87c.72.07,1.47.27,2.03-.2.96-.81-.44-2.77-.84-3.45-.07-.11-.15-.18-.24-.25,1.46.58,2.76,1.5,3.27,3.01.75,2.25-1.94,2.23-3.47,1.86-.27-.3-.52-.63-.75-.96ZM130.44,163.18c1.05,1.11,2.16,2.16,3.4,3.07-.25-.01-.49-.07-.74-.07-1.26.04-1.43,1.79-.14,1.99.79.12,1.67.31,2.52.6-.24,0-.48.1-.67.33-.24.29-.47.59-.69.89-.19.26-.21.62-.07.91.05.11.08.23.1.36-.04-.08-.09-.18-.12-.26-.13-.31-.64-.15-.55.17.11.41.31.85.47,1.29h0c-.3.1-.11.51.17.47.05.12.08.24.13.36-3.45-1.47-6.91-4.69-4.96-8.68.32-.66.72-1.1,1.15-1.44ZM105.29,200.78c-2.38,3.97-6.99,6.02-11.36,7.5-.07.02-.14.05-.22.07,1.84-4.19,6.86-7.21,11.58-7.57ZM116.26,210.12c.41-.24.83-.48,1.24-.77.15-.11.12-.31.02-.44,1.85-1.5,3.73-2.84,6.14-3.18-2.06,2.22-4.52,3.63-7.4,4.39ZM131.21,224.89c2.86.52,5.39,0,6.05-2.8.03-.11,0-.21-.02-.3.94.43,1.82.98,2.63,1.64-.79.94-2.16,1.65-3.8,1.89-.97.15-1.94.21-2.92.22-.68-.14-1.33-.37-1.95-.65ZM134.1,221.5c-.84-.39-1.68-.72-2.51-1.06,1.67.11,3.32.45,4.86,1.05-.01,0-.03,0-.04.01-.66.5-1.43.78-2.21.98.33-.2.38-.76-.09-.98ZM126.11,220.91c.22-.07.43-.14.66-.2,2.3.51,4.62,1.1,6.98,1.81.14.04.25,0,.35-.03-2.55.59-5.56-.2-7.99-1.58ZM126.09,218.53c3.9-1.83,9.59-2.27,12.58.09,1.3,1.03,1.83,2.05,1.87,2.98-3.82-2.8-9.23-3.96-13.8-2.89-.22-.06-.43-.11-.64-.18ZM104.77,234.96c.8-.2,1.61-.27,2.44-.17.31.23.61.46.93.68.31.22.59-.07.55-.38,3.65,1.09,7.08,4.42,8.24,7.82-2.52-.21-4.85-.83-7.13-1.72-1.74-2.11-3.74-3.83-5.04-6.24ZM54.42,197.71c.73-1.29,2.06-2.45,3.27-3.28.2,1.86-.43,3.66-1.5,5.19.02-.07.05-.14.06-.2.22-.8-.56-1.48-1.22-1.33.11-.36-.32-.65-.61-.38ZM14.73,181.12c1.44.05,2.82-.71,4.24.29.39.27.7.58.96.91-.29.23-.56.45-.81.56-1.44.65-2.96-.24-3.98-1.29-.14-.14-.28-.31-.42-.47ZM17.21,176.49c2.59.7,4.59,3.14,5.84,5.42.08.14.16.29.23.44-.61-.43-1.2-.82-1.8-1.22-.45-.67-.99-1.27-1.68-1.65-.51-.28-1.18-.52-1.88-.68-.24-.15-.49-.32-.73-.46-.3-.19-.57.03-.62.29-1.14-.02-2.21.31-2.78,1.26-.51-.81-.89-1.69-.81-2.57.15-1.76,3.01-1.15,4.22-.83Z"/></svg>