<?xml version="1.0" encoding="UTF-8"?><svg id="BACKGROUND_2" xmlns="http://www.w3.org/2000/svg" viewBox="0 0 73.16 85"><defs><style>.cls-1{fill:#6b502c;fill-rule:evenodd;}</style></defs><path class="cls-1" d="M47.47,59.22c-.12-.13-.25-.24-.38-.36.05-.06.09-.12.13-.19.11-.18-.08-.43-.28-.32-.09.05-.18.09-.26.14-3.42-2.89-8.94-4.04-13.39-2.87-.03,0-.07-.01-.1-.02,1.34-.79,2.7-1.51,4.08-2.16,0,0,0,0,.01,0,.03,0,.05.02.08.01.16-.04.33-.08.49-.12,3.35-.62,7.18.24,10.49-.23,2.68-.37,5.93-2.27,5.58-5.42,0-.02-.01-.03-.02-.04.03,0,.06-.02.08-.03.23-.07.17-.39-.07-.37-14.99,1.61-29.23,11.41-38.11,23.57.91-1.93,1.83-3.85,2.81-5.73,2.36-4.54,4.87-9,7.54-13.36,2.42-3.08,5.26-5.56,8.35-7.69,6.66-1.85,14.99-1.21,20.69-5.36,2.64-1.93,8.97-6.65,7.42-10.67.19-.14.37-.28.55-.45.29-.27-.1-.73-.41-.47-.1.09-.21.17-.32.25-.08-.03-.18-.02-.24.09-.02.04-.05.07-.07.11-2.29,1.42-5.66,1.15-8.17,1.9-2.66.79-5.23,1.83-7.73,3.05-4.82,2.35-8.56,6.07-11.55,10.45-2.25,1.5-4.38,3.21-6.24,5.16.65-1.01,1.29-2.02,1.96-3.01,4.34-6.42,9.38-12.49,14.98-17.83.51-.49,1.04-.96,1.58-1.44,4.89-2.65,10.37-3.86,15.12-6.76,5.41-3.29,8.06-10.1,11.03-15.37.12-.22.02-.61-.29-.59-12.43.84-19.86,11.5-25.7,21.48-.79.65-1.56,1.31-2.33,1.99-2.27,2.04-4.4,4.27-6.42,6.61,0-.02.02-.04.03-.06.2-.4.38-.81.56-1.23.06,0,.11-.01.16-.07,7.25-8.4,10.08-22.31,2.53-31.22,0,0,0,0,0-.01.05-.16-.08-.25-.21-.23-.07-.08-.13-.15-.19-.23-.14-.15-.4-.19-.55-.04-3.51,3.5-4.42,9.01-5.12,13.73-.45,3.02-.45,5.93.12,8.93.2,1.07.48,1.79,1.11,2.66,1.91,2.64,1.78,4.37,1.26,7.06-.24.65-.48,1.29-.74,1.92-1.82,2.19-3.55,4.45-5.22,6.73,1.17-2.52,1.97-5.42,1.29-7.68.42-.44.67-1.06.7-1.69.05-.95-.35-2.13-1.25-2.58-1.22-.6-2.67.45-2.94,1.69-.04.18.14.4.33.29.23-.13.49-.37.77-.6-.01.02-.02.05-.02.07-.17.18-.33.37-.47.58-.45.52-.57,1.29-.33,1.94.31.82,1.33.96,2.07.87.14-.02.26-.05.39-.09.09,2.95-.53,6.12-1.76,8.87-.05.07-.1.13-.14.2-2.54,3.56-4.87,7.27-7.07,11.06.48-2.14.68-4.34.73-6.55,1.12-4.85,2.91-9.49,2.53-14.68-.27-3.78-.22-11.74-4.03-14.01-.14-.08-.3-.03-.4.07-4.44-.75-5.18,7.15-5.52,10.02-.29,2.49-.39,5.07-.16,7.56.52,5.53,4.84,10.12,6.34,15.4,0,0,0,0,0,0-.12,1.25-.25,2.51-.42,3.78-1.68,2.96-3.3,5.97-4.88,8.97-.32.61-.64,1.22-.97,1.83.03-1.44-.11-2.85-.36-4.24.05,0,.1-.04.12-.1,3.44-10.21-6.07-22.01-15.68-24.04-.17-.03-.31.03-.38.19-.04.09-.08.18-.12.27h0c-.07.16-.14.32-.21.48-.04.08.03.16.1.19-1.34,2.77.87,5.82,2.43,8.14,1.86,2.75,3.24,5.72,5.05,8.49,2.11,3.24,5.68,4.46,7.89,7.51.08.11.2.14.3.11.2,1.38.31,2.73.32,4-2.97,5.62-5.99,11.37-8.16,17.29-.08.21.22.35.34.17,2.21-3.55,4.05-7.36,5.86-11.19,0-.01.02-.03.03-.04.04,0,.08-.02.12-.07,1.83-2.66,4.32-4.71,7.01-6.43,1.94-1.24,4.25-1.89,6.26-2.86.2.72.6,1.35,1.26,1.33.2.17.43.32.69.4,1.42.47,2.73-.27,2.99-1.75,0-.06.01-.12.02-.17,0,.02.01.03.02.05.08.18.33.14.39-.03.46-1.29-.48-2.61-1.64-3.15-.14-.08-.28-.14-.44-.16-.11-.03-.22-.07-.32-.08-.08-.01-.14.03-.18.09-.18.04-.37.1-.53.22-.06.04-.11.1-.16.15-.97-.22-1.83.27-2.17,1.35-.08.27-.1.67-.06,1.09-3.49.99-6.78,2.74-9.49,5.16,3.5-4.2,7.36-7.99,11.89-11.24.17-.12.34-.23.51-.35.95-.52,1.93-.88,2.92-1.1,1.43.66,2,2.63,3.22,3.52,1.05.76,2.11,1.11,3.37,1.34,2.04.38,5.04-.07,6.58-1.69.17.08.35.16.53.24.17.07.34-.18.21-.31ZM47.72,49.52c-.55.31-1.1.61-1.68.85-1.01.42-2.16.69-3.29.81,1.64-.6,3.3-1.14,4.98-1.66ZM41.84,51.54c2.78.1,5.83-.66,7.88-2.64,1.28-.39,2.56-.77,3.86-1.15-.81,1.62-1.16,2.96-2.9,3.91-1.74.95-4.02.95-5.93.99-.64.01-1.29,0-1.94,0,3.65-.41,7.42-1.04,9.2-4.07.1-.18-.11-.37-.27-.24-2.35,1.89-4.36,2.91-7.36,3.42-1.76.3-3.51.46-5.23.84.89-.38,1.8-.72,2.7-1.06ZM38.09,41.79c2.26-1.33,4.61-2.55,7.02-3.73,3.7-1.82,7.42-3.52,11.25-5.04.97-.38,1.88-.81,2.71-1.32-5.53,5.87-13.35,7.08-20.98,10.08ZM39.27,40.24c6.01-3.9,12.41-6.33,18.92-9.14-2.05,1.24-4.29,2.13-6.61,3.15-3.9,1.7-7.71,3.65-11.51,5.57-.27.14-.53.29-.8.43ZM61.51,29.62c.26-.12.53-.24.79-.36-.26,5.2-9.26,10.15-13.04,11.21-3.43.96-7.15.91-10.65,1.61,8.57-3.23,17.7-4.31,22.9-12.45ZM51.03,31.16c2.64-1.02,5.1-1.7,7.89-1.92.88-.07,1.64-.19,2.33-.45-.22.22-.46.41-.69.6-8.7,2.82-17.63,6.77-24.6,12.71,0,0,0,.02-.01.03-.17.1-.34.2-.5.3,4.15-5.26,9.26-8.83,15.58-11.28ZM71.23,4.64c.33,1.48-2.55,5.57-3,6.35-2.22,3.85-5.07,6.8-9.02,8.81-3.18,1.62-6.63,2.4-9.79,3.91.05-.05.11-.09.17-.14,9.1-3.98,16.34-10.38,21.58-18.88.02-.02.04-.05.06-.07ZM52.59,21.18c3.03-2.37,6.11-4.69,8.98-7.25,2.55-1.96,4.95-4.26,7.2-6.63-2.32,3-4.73,5.91-7.57,8.44-2.56,2.28-5.61,3.82-8.61,5.45ZM70.96,4.23c-3.67,3.17-7.05,6.78-10.57,10.11-2.55,2.08-5.21,4.04-7.84,6.02,1.79-1.91,3.54-3.86,5.34-5.72,3.91-4.05,8.41-7.27,13.03-10.43.01,0,.03.01.04.02ZM69.97,4.16c.15-.03.28-.04.39-.05-7.69,4.9-14.96,11.14-21.05,18.1,5.56-7.71,10.59-15.9,20.65-18.05ZM41.36,15.53c0,2.71-.31,5.53-.86,8.33.18-7.13-.99-14.36.68-21.44,1.04,3.59.18,9.52.18,13.11ZM42.09,3.54c.81,3.61,1.56,6.89,1.53,10.84-.03,4.03-1.25,7.88-2.85,11.55.75-3.52,1.09-7.18,1.26-10.36.16-2.93-.22-5.83,0-8.77.08-1.07.19-2.19.05-3.25ZM39.24,28.44c-.06-1.57-2.5-4.65-2.83-5.83-1.49-5.43.23-12.41,2.08-17.53-.04.11,1.23-3.46,2.43-3.66-1.55,3.99-1.41,8.29-1.47,12.56-.06,4.68.05,9.36.06,14.04-.09.31-.17.62-.26.93,0-.17,0-.34,0-.51ZM40.11,28.73c2.03-3.44,3.09-7.4,3.78-11.33.95-5.51-.35-9.8-1.67-14.87.77,1.08,1.35,2.26,1.9,3.47,1.32,2.94,1.4,6.33,1.12,9.47-.45,5.14-2.84,9.54-5.24,13.94.04-.23.08-.46.12-.68ZM31.63,30.48c.02-.09.05-.17.07-.23.02-.04,0-.08,0-.12.18-.07.35-.1.53-.06.2.05.35.2.47.38-.07.03-.13.08-.15.19-.03.2-.08.39-.14.58-.04-.01-.07-.03-.11-.03-.17,0-.33.04-.5,0-.19-.04-.23-.23-.22-.44,0,0,0,0,0,0,.08-.09.07-.18.04-.27ZM31.45,32.39c-.2.04-.32.07-.38-.05-.09-.18-.07-.42,0-.67.02.03.02.05.04.08.2.29.57.4.92.36-.04.06-.07.13-.11.2-.15.02-.3.05-.46.09ZM26.41,34.55c.14,3.13-.66,6.09-1.49,9.05.82-7.54-.41-15.98-1.54-23.37,2.71,3.6,2.86,10.21,3.03,14.32ZM23.01,19.77c.33,4.25.81,8.48,1.09,12.73.17,2.68.12,5.37.13,8.06-.02-.33-.04-.67-.06-1-.47-6.62-.82-13.22-1.18-19.83.01.01.02.03.03.04ZM22.57,19.34c-.87,5.55.11,11.56.62,17.11.34,3.76.44,7.37.3,10.99-.56-2.51-1.48-4.96-2.15-7.45-1.73-6.48-.73-14.24,1.2-20.53.01-.04,0-.07,0-.11.01,0,.02,0,.04,0ZM17.49,33.85c-.04-3.7-.08-13.38,4.63-14.41-1.97,5.06-2.42,10.68-2,16.08.37,4.82,2.23,9.25,3.05,13.95-1.76-5.32-5.62-9.67-5.68-15.62ZM12.95,59.54c-3.09-1.96-4.92-4.91-6.59-8.08-1.8-3.42-6.33-7.81-5.5-11.88.85,3.38,2.84,6.07,5,8.8,2.86,3.62,5.03,7.66,7.58,11.47-.16-.1-.31-.21-.49-.32ZM14.83,60.9c-1.82-3.23-3.81-6.38-5.88-9.45-2.66-3.95-6.17-7.22-7.61-11.84,5.24,6.93,9.48,13.93,13.69,21.48-.06-.06-.13-.12-.2-.19ZM1.69,39.39c7.2,3.67,12.29,13.37,14.04,22.08-2.9-8-8.27-15.86-14.04-22.08ZM12.42,50.98c-2.24-4.46-5.43-10.51-10.44-12.26,3.19.3,9.03,6.45,10.09,7.77,3.5,4.36,4.07,9.26,4.26,14.54-.8-3.49-2.3-6.85-3.91-10.06ZM31.04,62.08s.01,0,.02,0c0,0,.01.02.05.06.02.02.1.14.12.16.1.16.17.32.24.49.1.27.18.71.17,1.04-.01.73-.28,1.2-1.04,1.16-.07,0-.12-.02-.18-.03.11-.37.09-.74.11-1.13.03-.61.16-1.2.47-1.73.01-.02,0-.04,0-.05.01.01.03.02.05.03ZM29.51,61.78c-.17.29-.25.55-.28.84-.23.23-.4.5-.52.78-.03,0-.05.01-.08.02-.01-.14-.03-.27-.03-.41.02-.68.4-1.08.92-1.24ZM36.12,55.85c1.87,1.15,4.26,1.62,6.41,1.43.03,0,.06-.02.07-.04.83.38,1.64.8,2.46,1.22-3.72-.16-7.21-.27-10.41-2.52.49-.06.98-.09,1.47-.1ZM36.75,58.64c-.61-.59-1.07-1.26-1.57-1.82,2.86,1.91,7.05,3.26,10.24,1.97.04-.02.07-.05.08-.09.13.07.26.13.39.2-2.95,1.45-6.41,2.41-9.15-.25Z"/></svg>