<?xml version="1.0" encoding="UTF-8"?><svg id="BACKGROUND_2" xmlns="http://www.w3.org/2000/svg" viewBox="0 0 232.99 412.98"><defs><style>.cls-1{fill:#765a33;fill-rule:evenodd;}</style></defs><path class="cls-1" d="M229.9,218.75c-2.51,1.49-5.25.11-6.82-2.09-.02-.02-.06-.03-.09-.05-2.23-2.43-2.01-6.94,1.31-8.3,2.49-1.01,5.78-.23,7.54,1.83,2.29,2.67.92,6.92-1.94,8.62ZM230.08,213c-.1-.52-.44-1-1.01-1.39-1.16-.79-2.82-1.04-4.01-.37-.08.05-.44.36-.58.59-.1.17-.29.59-.34.88-.09.57-.08,1.14-.06,1.7,1.37,1.81,3.86,3.32,5.15,1.01.44-.78,1-1.6.84-2.42ZM136.51,201.7c1.99-1.29,4.68-.33,6.52.83,1.8,1.14,3.76,3.66,2.1,5.77-.97,1.22-2.71,2.1-4.26,1.59-.69-.23-1.21-.67-1.62-1.2-.21.32-.63.45-1.02.33-1.5-.47-2.68-2.76-2.89-4.26-.16-1.13.17-2.41,1.18-3.06ZM138.43,204.46c.03.17.05.34.09.51.04.17.11.34.17.51.27-.16.62-.15.9.13.53.54,1.43,1.92,2.27,1.43.31-.18.5-.26.79-.54-.02-.05-.06-.16-.08-.2-.02-.04-.02-.04-.02-.04-.02-.02-.05-.05-.11-.12-.09-.1-.17-.21-.27-.31.15.16-.44-.37-.6-.48-.29-.2-.61-.39-.73-.45-.67-.33-1.28-.55-1.77-.61-.15-.01-.3-.03-.45-.04-.06,0-.14,0-.17.01-.02,0,0,0-.03,0-.02.16-.02-.03.01.2ZM145.99,232.2c.03.55-.35.98-.91.94-2.34-.17-4.07-2.21-3.8-4.69.28-2.6,2.28-3.96,4.76-4.07.78-.04,1.6.52,1.87,1.23,2.87-.61,5.98-.37,8.35.97.67.38.11,1.23-.48,1.23-3.09-.02-6.98-.6-9.79,1.1-.16.17-.35.34-.53.5.04.11.06.2.12.34.4.89.35,1.52.4,2.45ZM82.52,167.24c-.55-1.2,1.21-2.31,1.99-1.22.53.74,1.35,1.09,1.8,1.96.27.52-.03,1.3-.58,1.49-.76.27-2.11.64-2.69-.23-.22-.33-.34-.64-.36-1.04,0-.15.03-.5-.01-.71-.05-.09-.11-.18-.16-.26ZM89.16,156.75c-2.68-1.33-3.18-5.98-.66-7.72,2.03-1.41,4.89-1.26,6.67.5.88.87,1.31,2.2,1.13,3.42-.2,1.42-1,3.6-2.43,4.18-1.4.57-2.61-.05-3.61-1.1,0,.02,0,.04,0,.05-.03.5-.65.9-1.1.67ZM92.68,154.8c.5-.48,1.03-1.65.97-2.35-.06-.64-.22-.93-.69-1.23-.87-.56-2.23-.51-2.93.18-.11.1-.21.29-.27.52.96,1.47,2.38,3.4,2.92,2.88ZM65.12,125.68c.31.73-.53,1.33-1.15.93-1.73-1.11-3.08-2.6-4.16-4.27-.87.22-1.83.16-2.61-.25-1.27-.67-2.52-1.76-2.24-3.37.22-1.23,1.12-1.85,2.19-2.18-.04-.11-.08-.22-.11-.33-.76-2.43,2.36-3.85,3.6-1.61,4.64-2.25,10.11-3.15,15.18-3.06.8.01.93,1.24.22,1.52-3.93,1.59-8.36,1.33-12.29,2.95-.67.28-1.35.57-2.02.9.22.6.39,1.23.45,1.84.92,2.33,1.93,4.62,2.92,6.94ZM37.58,61.07c3.11.62,3.53,3.79,2.65,6.42-.66,1.97-2.33,3.56-4.43,2.34-.03-.02-.05-.05-.08-.06-.15.26-.46.44-.77.45-3.22.03-4.8-3.87-3.24-6.38,1.12-1.82,3.72-3.2,5.87-2.76ZM36.94,67.75c.68.2.94-1.95.97-2.54.01-.25-.08-.81-.07-.79-.12-.3-.09-.27-.22-.36-.19-.14-.54-.24-1.06-.16-.73.12-1.6.56-2.11,1.11.52,1.1,1.38,2.41,2.5,2.74ZM73.9,77.79c.54-1.26,1.73-1.93,3.04-2.25.74-.19,1.55.5,1.62,1.22.17,1.68.07,3.76-1.68,4.56-.35.16-.69.19-1.02.16-.07.2-.12.42-.21.6-.23.45-.97.76-1.32.21-.4-.66-.64-1.45-.74-2.26-.28-.32-.53-.65-.74-.93-.58-.78.32-1.66,1.04-1.3ZM196.57,229.34c-1.4-7.57-3.43-14.75-3.43-22.36-.9-.79-1.59-1.99-1.95-3.19-.07-.03-.13-.06-.19-.13-1.69-2.1-1.46-6.08,1.59-6.73,2.27-.48,4.7,1.11,5.88,2.96,1.44,2.26,1.18,5.35-.9,7.06.2.66.38,1.34.54,2.07.18.86-.3,1.44-.95,1.67,0,.08,0,.16,0,.24-.05.65-.96,1.15-1.48.65-.27-.26-.51-.51-.72-.77.14,6.16,1.71,12.39,2.6,18.39.09.64-.86.77-.98.14ZM195.33,202.68c.36.42.66.85.94,1.3.39-.92.3-1.86-.41-2.71-.37-.44-.82-.87-1.34-1.1-.53-.24-.9-.36-1.31-.28-.04.02-.1.03-.15.05-.04.04-.19.13-.21.15.08-.09-.17.31-.21.41-.17.6-.25,1.21-.34,1.82.16.3.37.68.62,1.07.14-.18.32-.32.52-.44.33-.73,1.34-.91,1.89-.27ZM220.63,210.15c-.86.53-1.79.9-2.73.99-.05.05-.1.1-.16.14-.05.04-.11.06-.17.09-.06.03-.12.05-.18.07-.13.04-.26.05-.39.04,0,0-.02,0-.02,0-.13-.01-.26-.05-.38-.11-.03-.02-.06-.03-.09-.04-.07.1-.14.21-.2.29-.24.37-.62.46-.97.37-3.64,9.02-7.43,18.79-16.41,23.34-.18,1.93-.35,3.85-.52,5.79.07.17.15.34.21.51.1.26-.08.5-.3.59-.45,5.36-.87,10.73-1.4,16.06.07.14.13.28.2.42.24.53.01,1.01-.36,1.26-.17,1.6-.36,3.18-.55,4.77.87-1.43,1.9-3.27,2.14-3.61,1.89-2.69,3.82-5.33,5.6-8.1,2.37-3.69,4.67-7.43,7.14-11.06.47-.68,1.57-1.78,2.33-2.72-.09-.83-.12-1.67-.05-2.63.04-.52.68-.95,1.17-.71.43.22.84.44,1.27.68.34.19.37.72.16,1.01-.2.27-.38.55-.58.81.19,1.3.26,2.51.11,3.96-.09.92-1.35.85-1.53.02-.12-.54-.23-1.04-.32-1.53-2.52,3.67-4.88,7.45-7.32,11.19-2.91,4.45-6.37,8.59-8.64,13.41-.52,1.11-1.22,2.38-1.91,2.7-2.07,15.2-5.77,29.92-14.55,43.17-.25.37-.61.52-.98.52.39,9.55.94,19.06,2.02,28.41,2.91-2.27,4.1-6.35,5.01-9.81.94-3.55,1.78-7.09,2.87-10.6.26-.86,1.54-.82,1.86-.04.52,1.27.91,2.53.15,3.78-.32.52-.84.66-1.34.57-1.79,6.48-2.53,14.47-8.32,18.03,3.1,25.1,10.27,48.95,29.2,68.99,1.02,1.08-.76,2.51-1.77,1.45-26.43-27.74-31.83-65-32.92-101.83-.03-.14-.05-.31-.02-.49l-.12-2.48c-.06-.22-.02-.41.05-.58-.07-2.8-.1-5.59-.13-8.37-.21-22.1-2.11-44.18-9.39-65.14-5.79-2.63-10.61-6.7-15.41-10.87-2.86-2.49-5.67-5.1-8.7-7.37-.27-.21-3.47-3.15-2.82-1.86.5.47.96.98,1.31,1.55.25.19.46.41.72.58.47.35.27,1.1-.25,1.22-.31.85-1.55,1.21-1.96.14-.15-.25-.36-.49-.6-.73-.95-.38-1.77-.94-2.65-1.83,0,0,0,0,0,0h0c-.1-.1-.18-.17-.28-.28-1.07-1.15.53-2.99,1.77-2.31,0-.07-.03-.14-.02-.22.03-.55.67-.71,1.07-.47,9.65,5.9,17.15,15.05,27.12,20.38-.2-.56-.37-1.13-.58-1.69-7.41-19.44-18.15-37.03-29.35-54.43-3.07,14.21-5.83,28.32-12.63,41.5,1.34,5.35,3.02,10.66,4.94,16,21.25,19.88,36.22,46.96,47.5,73.32.51,1.2-1.29,1.98-1.83.81-4.39-9.63-9.07-19.17-14.31-28.38-5.35-4.71-11.26-8.33-17.45-11.41-.22.06-.46.08-.72,0-17.18-4.74-34.11,3.34-50.92-4.82-15.87-7.71-30.28-18.41-43.42-30.2-.5.42-1.01.82-1.51,1.27-1.14,1.03-2.62-.83-1.49-1.85.41-.38.83-.69,1.25-1.05-.36-.51.18-1.27.75-.84.04.03.09.07.13.1,33.94-27.65,71.08,13.78,96.37,35.26.16.13.26.28.34.44,5.17,2.64,10.09,5.66,14.52,9.43-4.73-8.01-9.88-15.75-15.69-23.04-13.07-16.41-27.69-27-45.04-38.17-.61-.39-1.21-.83-1.82-1.24-17.51-8.07-39.1-6.5-54.12-20.07-16.3-14.71-23.81-36.77-41.12-50.41-.92-.73-.29-1.98.77-1.98,20.64-.02,41.32,6.75,57.62,19.7,6.8,5.4,13.01,10.98,17.42,18.57,6.22,10.69,10.97,22.99,20.68,31.04.4.33.46.78.34,1.16,3.17,2.03,6.37,4.01,9.67,5.89,7.19,4.1,13.79,9.01,19.9,14.48-1.5-3.83-2.81-7.78-3.92-11.82-.83,1.45-2.91-.11-2.1-1.57.4-.72.76-1.45,1.14-2.17-.34-1.44-.69-2.89-.98-4.34-10.06-12.62-13.57-27.39-12.35-42.09-8.63-.2-20.14-2.92-26.84-9.13-.45.1-.94.16-1.46.19-.05.01-.11.02-.16.04-1.24.31-1.99-.69-2.09-1.75-9.87,1.51-9.12-12.82,1.34-11.46,6.6.85,8.93,9.4,4.21,12.27,6.66,5.66,16.91,6.77,25.11,8.58.75-7.45,2.69-14.86,5.64-21.96-7.99-11.88-17.85-22.25-27.98-32.39-4.96,1.37-8.65-1.37-13.24-3.1-6.41-2.43-12.89-4.55-19.18-7.24-.27.6-.92,1.05-1.65.74-.89-.37-1.2-.52-1.87-1.07-6.94,2.57-9.31-8.63-3.29-11.85,6.38-3.42,11.16,5.93,7.36,10.26,4.88,2.13,9.92,3.81,14.92,5.67,5.11,1.9,10.28,5.47,15.85,5.49-3.56-3.55-7.14-7.08-10.69-10.63-.18.61-1.1.87-1.41.13-.34-.83-.63-1.66-.95-2.5-5.83-5.91-11.48-11.94-16.69-18.31-6.65,3.71-14.94-.75-22.58-1.97.24.8.17,1.62-.49,2.32-1.09,1.17-2.23,1.47-3.27,1.22-.58.07-1.2,0-1.89-.28-1.03-.41-1.46-1.81-1.42-3.25-.12-.33-.24-.66-.32-1.01-.13-.57.31-1.06.81-1.23.35-.75.86-1.32,1.55-1.42.82-.12,1.88.27,2.84.92.11-.35.17-.7.21-1.06-.47-.02-.91-.51-.67-.98.34-.54.55-1.12.64-1.76.31-1.12,2.23-1.2,2.57-.05.31,1.07.3,2.72-.03,4.39,7.1,1.27,14.34,5.1,21,2.88-5.3-6.61-10.04-13.64-13.96-21.3-.1.04-.18.09-.29.12-1.39.38-2.74-.38-3.84-1.35-.14.07-.29.1-.45.07-3.03-.52-4.67-3.62-4.16-6.39-.12-.22-.26-.43-.37-.65-.39-.75.53-1.49,1.18-1.25.15-.23.28-.48.47-.69,2.05-2.23,5.92-3.71,8.48-1.39,1.54,1.4,1.94,3.56,1.76,5.57-.16,1.82-.42,4.24-1.9,5.45,2.75,4.94,5.87,9.57,9.25,13.99-.74-3.65-.66-7.89-.71-11.63-.33.25-.81.3-1.13-.09-1.85-2.19-3.3-7.29.53-8.48,3.41-1.06,4,3.16,3.49,5.47-.14.67-.61,1.16-1.18,1.36-.64,7.03.28,18.19,5.68,20.35.58.24.42.92-.03,1.1,4.13,4.71,8.5,9.23,12.97,13.66-.23-.74-.48-1.46-.69-2.2-1.08-3.87-1.75-10.2-3.81-14-.15-.06-.3-.15-.43-.29-.81-.91-1.65-1.78-2.53-2.63-.95-.97-.06-2.45,1.05-2.69,2.14-.45,2.25-3,1.28-4.43-2.02,1.5-3.57,1.6-5.89.08-1.08-.71-.9-2.19-.08-2.98,6.9-6.61,14.21,6.43,7.39,9.89.08.13.16.27.24.4.06.06.1.14.15.22.02.03.04.04.06.07.14.26.29.52.44.77.24.43.18.81-.03,1.1,1.23,6.37,3.01,12.82,5.21,18.99,1.3,1.27,2.61,2.54,3.92,3.8.06-.11.14-.22.3-.27,2.14-.69,1.98-5.29,2.17-7.08.24-2.37.43-4.89,1.69-6.97.3-.48,1.04-.56,1.47-.23.42.32.81.65,1.19.98.3.1.6.26.86.59,1.03,1.01,1.73,1.95,2.07,3.22.03.07.07.14.09.21.09.21.1.42.08.64,0,.02,0,.04.01.05.04.31-.13.63-.37.82-.46.57-1.26.84-1.9.25-.3-.27-.57-.59-.82-.91-.74-.47-1.35-1.11-1.92-2.02,0,0,0-.01-.01-.02-.61,2.34-.52,5-1.05,7.26-.42,1.8-1.03,3.82-2.94,4.36,13.91,13.42,27.91,26.73,37.54,43.63,2.16-4.91,4.81-9.63,7.83-14.12-2.08-4.47-4.27-8.96-6.47-13.48-.03.44-.07.89-.09,1.33-.04.85-1.36.85-1.47.02-.17-1.37-.28-2.74-.35-4.11-38.99-20.39-27.61-74.26-40.89-109.74-.07-.21-.08-.4-.05-.59-.27-.11-.51-.23-.79-.34-.84-.32-.52-1.8.39-1.57.55.14,1.09.31,1.62.48.27-.14.64-.12.74.22,0,0,0,.01,0,.02.61.21,1.22.44,1.81.68.14.03.28.04.42.06-.4-.66-.79-1.32-1.22-1.96-.41-.62.33-1.61.97-1.03,1.23,1.12,2.34,2.39,3.38,3.75,16.36,4.85,28.37,22.96,34.7,37.72,9.76,22.76,3.2,46.67,1.15,70.39.26.58.51,1.16.77,1.74.29.15.55.32.85.47.64.32.47,1.18-.04,1.36,1.89,4.28,3.79,8.59,5.65,12.96,5.67-8.04,12.61-15.17,20.37-20.79.65-.47,1.73-.36,2.03.5,5.89,16.51-1.54,35.47-5.93,51.53-.29,1.06-.53,2.12-.8,3.17,3.83,9.38,10.07,17.76,9.37,28.41,0,.13-.08.21-.15.29,3.77,6.25,7.3,12.61,10.52,19.09-1.13-8.03.16-16.16,2.47-24.18-.37.2-.91.11-1.03-.43-.1-.48-.12-.94-.2-1.42-8.43-11.27-3.45-26.3,1.7-38.32,7.55-17.62,23.05-38.74,21.23-58.73-.11-1.14,1.06-1.8,2-1.21.8.5,1.54,1.04,2.28,1.58.45-.22,1.06-.15,1.33.44.11.24.18.5.29.74,16.3,12.77,21.19,35.27,15.5,55.25-3.2,11.23-8.17,20.43-17.31,27.79-10.55,8.49-23.49,15.62-26.29,30.05-.09.45-.71.54-.89.16-.21,4.31.06,8.54,1,12.62,2.74,5.81,5.26,11.71,7.44,17.73.03.01.05.03.08.04.47.21.51.71.32,1.06,5.24,14.72,8.71,30.09,9.64,46.29.5,8.78.76,17.65,1.09,26.52.13.1.25.25.31.39.14.26.28.52.41.78.32-5.2,6.2-11.22,7.85-16.29,1.77-5.46,3.29-11,4.24-16.68.87-5.2,1.52-10.43,2.07-15.66-3.1-3.65-6.13-7.39-8.8-11.38-1.29-1.93-3.26-3.92-1.81-6.16-.98.16-1.95-.03-2.76-.87-1.15-1.2-1.3-2.78-.9-4.33.14-.54,1.03-.42,1.07.12.06.88.53,2.37,1.5,2.66.83.24,1.8-.95,2.11-1.61.62-1.3.14-2.43-.87-3.24-.61-.49-1.11-.79-1.87-1,.07.02-.86-.08-.66-.1-.38.03-.55.07-.61.09-.14.07-.16.02-.37.33-.1.16-.17.46-.3.79-.36.95-.29,2.35-.33,3.36-.02.51-.76.71-1.06.3-1.09-1.54-1.83-3.24-1.34-5.15.29-1.17,1.2-2.31,2.39-2.66,2.56-.75,5.43.48,7.03,2.59,1.87,2.46,1.7,6.06-.99,7.91-.1.07-.2.1-.31.16.73.57.9,1.82,1.16,2.65.13.42-.13.82-.58.79-.13,0-.23-.03-.33-.06.94,2.3,3.91,5.46,4.69,6.45.62.79,1.25,1.57,1.88,2.36.15-.77,1.25-1.01,1.64-.2.28.59.55,1.19.83,1.79.37-3.94.71-7.88,1.02-11.84.08-.99.16-1.98.24-2.97-5.08-7.95-9.78-16.46-13.7-25.02-3.05.49-5.86-2.47-6.75-5.52-.17-.6.33-1.07.79-1.08-.75-1.43-.26-3.51,1.19-4.66,2.03-1.61,5.21-2.21,7.33-.42,2.75,2.34,2.47,8.54-.33,10.71-.08.06-.16.08-.23.13.46.6.7,1.29.96,2.29.07.24-.08.44-.28.54,3.53,6.84,8.02,13.35,11.24,20.3.4-4.79.9-9.59,1.53-14.36,0-.07,0-.12.03-.19,1.46-10.81,3.79-21.45,8.35-31.44-.04-.07-.1-.12-.14-.18-.18.02-.37,0-.56-.12-3.03-1.94-3.23-7.02.1-8.76,2.56-1.35,6.21-.81,8.48.93,3.14,2.42,3.14,6.76.47,9.6-1.68,1.79-4.17,2.03-6.21.68-.27-.18-.49-.41-.74-.62-3.73,8.79-5.91,18-7.37,27.41,1.46-1.92,2.22-4.2,2.78-6.63-.12-.18-.22-.38-.26-.59-.17-.97.09-2.01.3-2.96.32-1.45,2.29-1.96,2.96-.44.87,1.94,1.98,3.9,1.23,6.03-.27.76-1.23.8-1.72.27,0,0,0-.02-.01-.02-.97,3.38-2.57,6.93-5.79,7.76-.46,3.36-.85,6.75-1.18,10.15,8.19-4.97,12.21-15.01,15.34-23.92,0-.02,0-.04,0-.06-1.07-1.03-1.48-2.41-1.37-3.97.02-.31.24-.49.5-.59-.43-1.87.21-4.1,1.86-5.1,2.18-1.34,5.22-1.24,6.94.88,2.11,2.61,1.11,7.32-1.7,9.05ZM113.92,264.61c7.03-.49,13.9-1.38,20.87-.98-1.19-.51-2.4-.98-3.6-1.48-.01,0-.02.02-.03.03-13.35,3.04-27.41-2.89-38.99-9.13-13.5-7.29-26.32-14.92-40.88-19.71,18.02,14.22,39.1,32.94,62.64,31.28ZM49.57,230.98c-.21.16-.43.32-.65.49.06.05.12.09.18.14.05-.01.09-.05.15-.04,12.77,2.12,24.09,9.05,35.25,15.3,14.61,8.19,27.51,13.59,44.02,14.18-8.88-3.57-17.89-6.95-26.31-11.57-10.42-5.71-21.31-13.93-33-17.61-5.88-.64-12.09-.66-19.07-.52-.28,0-.46-.17-.57-.37ZM111.74,252.15c-4.85-3.12-9.49-6.61-14.07-9.7-7.06-4.77-13.56-7.56-20.23-9.16,8.06,3.78,15.73,8.99,23.04,13.24,3.6,2.09,7.39,3.92,11.26,5.62ZM53.33,228.44c5-.64,9.86-.06,14.6,1.26,7.37.45,14.51,1.99,21.65,5.74,13.5,7.09,24.91,16.8,38.84,23.27-10.57-7.42-18.9-17.91-30.61-23.84-14.31-7.25-27.69-10.14-43.33-7.06-.38.21-.77.4-1.15.63ZM130.41,257.03c-19.35-17.36-46.33-41.59-71.93-31.18,30.86-5.59,52.14,18.19,75.89,35.54.56.23,1.12.45,1.67.69-1.88-1.68-3.76-3.37-5.64-5.05ZM84.58,206.26c-26.49-12.48-49.78-34.48-71.19-55.29,3.06,4.36,5.85,9.05,6.87,10.6,6.62,10.11,12.99,21.64,22.56,29.29,13.77,11.01,30.98,11.86,46.68,17.94-2.04-1.6-4.01-3.27-5.92-5-23.57-18.71-44.65-43.71-71.34-55.89,10.13,9.15,20.1,18.48,30.62,27.18,13.47,11.14,27.97,20.27,42.17,30.34.44.31.04,1.06-.45.83ZM9.57,145.53c15.99,6.31,29.5,18.69,42.26,29.86,6.94,6.07,13.94,12,21.1,17.69-19.18-21.06-34.34-45.22-65.91-49.83.85.76,1.7,1.52,2.55,2.28ZM63.47,166.57c-15.58-13.38-35.38-23.36-56.19-24.09,36.06,3.99,54.46,35.98,78.01,59.95,1.66,1.2,3.29,2.43,4.98,3.59-10.42-11.9-14.44-28.84-26.8-39.46ZM79.48,151.09c-3.06-1.21-4.64-.15-4.74,3.18.92,1.41,2.15,2.26,3.71,2.55.03.01.04.05.08.06.26-.28.6-.5,1.09-.51.15,0,.24-.05.37-.07.1-.05.21-.05.32-.05,3.03-.59,1.98-4.28-.83-5.16ZM47.39,97.14c-.31,1.47.17,2.44,1.4,2.91.06-.64.74-1.27,1.4-.93.33.17.68.31,1.01.48,4.15-2.07-3.51-6.68-3.81-2.46ZM39.5,49.27c-.44-.3-1.31-.4-1.93-.18-.87.31-1.6.74-2.09,1.42-.37.5-.55.93-.56,1.46.41.5.83,1.01,1.28,1.47.69.72,1.84,1.98,2.95,2.25-.08-.17-.18-.33-.26-.5-.25-.54.56-.89.83-.37.05.1.1.18.15.28.05-.12.1-.23.12-.31.25-.93.33-1.98.34-2.94.01-1.01-.26-2.17-.84-2.58ZM84.93,55.46c3.03,20.58,8.26,40.24,24.12,52.84-14.43-18.53-20.72-41.71-25.71-65.07.49,4.08.99,8.17,1.59,12.24ZM79.71,6.57c-.64-.37-1.31-.71-1.99-1.05-.67.09-.92.45-.95,1,10.78,35.62,14.34,71.07,34.89,103.36.09.14.11.29.08.42.75.53,1.5,1.06,2.3,1.55-8.24-17.03-16.27-34.51-19.56-52.86-3.21-17.89-6.05-36.4-14.78-52.41ZM94.6,48.52c3.68,19.99,10.89,37.85,18.74,55.79-5.24-31.52-2.95-74.82-28.79-94.51,6,11.67,7.98,27.47,10.05,38.72ZM117.48,53.65c-4.36-15.91-15.88-38.13-32-45.82,10.84,8.55,16.79,23.34,20.36,36.38,4.61,16.83,8.01,35.08,9.73,52.99,2.06-14.54,5.89-29.07,1.92-43.54ZM125.32,130.66c-4.83,7.31-9.15,15.16-11.64,23.62-5.55,18.88-4.44,37.93,6.76,53.86-.07-.41-.12-.83-.19-1.24-17.86-26.56,1.37-67.7,18.09-90.65-5.36,4.65-11.95,12.8-13.02,14.41ZM140.19,114.74c.4.19.68.69.35,1.18-15.76,24.19-33.8,58.42-20.87,87.06-3.23-25.21,1.66-51.75,17.94-71.13.47-.56,1.26.04.9.66-9.57,16.61-17.49,32.96-18.08,52.62-.23,7.78.42,15.25,1.7,22.58.16.27.32.53.48.8-2.8-13.29.59-26.61,5.31-39.27,6.99-18.73,13.73-35.26,13.4-55.29-.36.23-.74.49-1.13.78ZM145.37,114.3c-.31-1.38-1.27-1.59-2.59-1.09,7.27,33.3-25.5,63.33-18.66,97.63,5.4-12.5,7.47-25.64,10.52-38.9,0-.02,0-.04,0-.06.49-2.12,1-4.25,1.56-6.38,4.05-15.43,12.77-34.97,9.16-51.2ZM139.2,164.69c-.73,2.96-1.42,5.93-2.06,8.89,3.73,5.4,7.29,10.88,10.68,16.44-.18-8.63-4.74-17.61-8.62-25.33ZM185.81,96.22c-.67,3.41-1.5,6.77-2.69,10.04-3.04,8.36-6.88,16.34-10.73,24.35-6.51,13.54-19.38,35.15-12.21,50.64-.65-10,2.99-19.31,8.08-28.15,10.44-18.12,22.3-36.06,17.65-57.74-.02.3-.05.59-.1.86ZM188.16,91.11c-.32-.21-.62-.43-.95-.64-.58-.36-.92-.34-1.12-.11,1.18,1.36,2.23,2.83,3.19,4.37-.3-1.22-.66-2.43-1.12-3.62ZM190.12,99.93c-.8-1.71-1.73-3.35-2.75-4.91,3.58,14.11-.98,28.84-7.47,41.56-7.87,15.44-20.8,29.26-17.98,47.71.14.2.27.42.42.62,3.19-10.42,7.99-20.62,11.41-30.11,5.79-16.03,17.96-36.56,16.37-54.88ZM188.6,168.38c18.6-17.46,23.98-57.79,2.17-75.37.02.08.03.16.06.25,10.72,16.68,12.35,38.76,3.82,56.86-.26.55-1.03.24-.86-.34,5.19-18.14,6.57-36.38-2.22-53.01.15.98.28,1.97.35,2.97,5.6,12.66,5.62,28.88,2.92,41.51-3.63,16.97-16.73,29.71-26.67,43.58,6.19-6.19,14.72-11.07,20.44-16.44ZM162.66,192.07c-.18-.17-.29-.45-.14-.73,8.27-14.83,22.34-27.03,28.26-43.1,4.67-12.66,5.9-29.79,1.17-43.71-.58,14.04-7.58,28.91-12.48,40.72-6.12,14.71-15.45,32.82-18.25,50.23.37-1.19.87-2.31,1.44-3.41ZM183.5,205.32c-1.18-.55-2.65-.18-3.6.68-1.12,1-.56,1.64.01,2.84.25.53-.23,1.16-.8,1.08-.59-.08-1.03-.31-1.42-.59.54,1.47,1.45,2.87,3.02,3.36,1.28.4,2.52.1,3.22-1.1.73-1.26,1.45-5.39-.43-6.26ZM207.77,189.35c.68-.45,1.81.14,1.39,1.06-.02.05-.04.11-.07.16,1.59,1.13,3.47,1.36,4.48-1.03.74-1.74.34-3.27-1.3-4.08-1.56-.76-3.49-1.04-4.87-.22-.35.21-.71.6-.74,1.33-.02.5.08.98.19,1.46.24.45.55.9.92,1.31ZM219.87,203.87c-.06-.23-.27-.53-.59-.73-.51-.32-1.5-.3-2.03.16-.2.18-.48.57-.52,1.19-.05.86,0,1.73-.16,2.58.34.13.64.37.78.69l.11.25c.9-.22,1.69-.95,2.03-1.79.33-.8.56-1.58.37-2.36ZM211.69,260.27c-.78-.27-1.25-.65-1.6-1.11-2.15.49-5.2,4-5.94,4.87-1,1.19-4.05,3.92-4.23,5.42-.12,1-1.58.81-1.53-.18.13-2.84,4.06-6.76,5.87-8.59,1.38-1.39,3.14-2.85,4.98-3.41-.05-.17-.1-.31-.15-.49-.51-1.74,1.59-3.4,2.88-1.76,1.07,1.35,1.89,2.52,2.36,4.18.38,1.34-1.35,1.8-2.2,1.05-.15.02-.28.07-.43.01ZM207.98,235.37c0,.24-.06.47-.34.59-.92.39-1.77.62-2.75.8-.87.15-1.13-1.07-.41-1.45,2.98-1.57,5.23-4.27,7.77-6.42.88-.74,1.83-1.51,2.88-2.04-.18-.48-.35-.98-.37-1.47-.2-.76.28-1.37.96-1.63.01,0,.03,0,.04-.02.01,0,.03,0,.04-.01.65-.32,1.42-.26,1.83.4.5.5.81,1.3,1.12,1.88.34.61.23,1.17-.07,1.62-.06.85-.79,1.43-1.75,1.18-1.66-.43-5.37,3.82-6.53,4.78-.78.64-1.58,1.25-2.41,1.79ZM218.67,239.64c1.19-1.49,3.49-2.46,5.14-1.02,1.09.95,1.66,2.26,1.99,3.66.27,1.14.56,3.45-.94,3.97-1.95.67-3.41-1.44-4.3-3.22-.05.29-.26.57-.52.67-.92.36-2.1-.48-2.15-1.52-.05-.91.2-1.83.78-2.55ZM221.25,241.3c.31.61,1.31,1.82,2.18,2.35,0-.1,0-.2-.02-.3-.11-.52-.24-1.05-.45-1.54-.16-.37-.44-1.02-.8-1.17-.43-.18-.84-.01-1.21.4.11.06.23.12.31.26Z"/></svg>