<?xml version="1.0" encoding="UTF-8"?><svg id="BACKGROUND_2" xmlns="http://www.w3.org/2000/svg" viewBox="0 0 82.72 130.25"><defs><style>.cls-1{fill:#424242;fill-rule:evenodd;}</style></defs><path class="cls-1" d="M26.9,98.12c-.04-.16.06-.32.21-.42-.02-.27.17-.54.51-.62,1.33-.3,2.76-.35,4.24-.24.12-.13.3-.24.53-.25,4.74-.32,13.35,3.95,17.03,8.53,0,0,.01.01.02.02,3.73,1.58,7.29,3.53,9.84,6.25-1.63-3.32-3.24-6.66-4.84-9.99,0,.25-.48.4-.6.14-2.09-4.94-6.81-8.37-11.78-11.39-.1.08-.21.14-.33.17-5.24,1.02-11.69-2.84-15.66-5.01-2.85-1.55-11.21-5.97-9.7-9.98.41-1.1,1.28-1.6,2.44-1.66,0-.06,0-.11,0-.17.05-.34.41-.54.78-.47,3.17.6,14.94,6.27,17.47,10.83,2.34,1.39,4.2,3.18,5.01,5.24,4.37,2.65,8.63,5.73,11.05,9.58-1.34-2.77-2.69-5.54-4.06-8.29-.15.04-.33-.01-.38-.18-.91-3.02-3.53-5.37-5.97-7.51-1.1-.96-2.25-1.87-3.41-2.77-.11-.08-.21-.19-.32-.31-.03.24-.1.5-.22.75-.09.2-.36.36-.6.28-1.95-.63-3.58-2.36-2.27-4.22.12-.17.39-.26.59-.2,1.26.36,2.5,1.34,2.55,2.58,2.43,1.82,5.16,3.77,7.23,6.06-1.2-2.3-2.41-4.6-3.67-6.87-2.68-3.05-5.76-5.92-9.08-8.63-.16.13-.4.19-.64.06-2.92-1.56-5.77-3.22-8.57-4.94-1.25-.63-2.52-1.26-3.77-1.89-5.87-2.97-10.8-7.05-16.19-10.57-.5-.32.04-1.06.58-.75.48.27.95.56,1.43.84-.85-.97-1.47-1.99-1.72-3.05-.89-3.73,8.08.5,8.54.76,7.15,4.09,14.4,10.47,18.76,16.9,3.31,2.6,6.37,5.36,8.94,8.24-.31-.53-.59-1.07-.91-1.6-3.45-5.85-7.07-11.68-10.46-17.61-2.64-2.47-5.46-4.77-8.16-7.15-.94-.54-1.85-1.12-2.73-1.71.16.15.3.31.44.47,1.37,1.08,2.77,2.14,4.18,3.18.49.36-.28,1.15-.79.8-.79-.54-1.55-1.11-2.28-1.69-2.73-2.02-5.26-4.21-7.71-6.47-1.51-1.39-3.27-3.1-4.91-4.98-2.86-2.26-5.63-4.56-7.49-7.61-.26-.42.42-.75.78-.48.92.7,1.81,1.42,2.68,2.16-1.03-2.18-1.55-4.44-1.1-6.63.06-.31.39-.55.76-.46,4.15,1.03,6.22,4.35,8.29,7.38,3.05,4.47,7.17,8.53,8.99,13.57,0,0,0,0,0,0,.65.63,1.3,1.27,1.92,1.94.18.2.12.45-.05.62,2.07,1.82,4.23,3.58,6.27,5.42-2.22-3.94-4.31-7.92-6.2-11.98-.06.16-.36.24-.44.06-.48-1.07-.84-2.26-1.09-3.51-1.49-3.49-2.8-7.03-3.85-10.67-.19.19-.59.06-.5-.23.08-.26.14-.52.22-.78-.05-.19-.11-.38-.16-.58-.16-.01-.31-.06-.4-.19-4.42-7.18-7.73-16.8-4.11-25.16.12-.28.53-.36.75-.16.48.43.89.89,1.26,1.37.46-.79,1-1.55,1.67-2.22.14-.14.38-.1.5,0,7.57,6.23,4.06,18.37,1.25,26.7.88,2.78,1.9,5.5,3.01,8.18,0-2.12.39-4.24,1.18-6.14-.08-.19-.14-.39-.16-.56-.11-.96.54-2.19,1.88-1.93.28.05.52.17.73.31.15-.05.35-.02.35.14,0,.05-.01.1-.01.14.5.55.63,1.35.21,2.04-.1.16-.4.11-.43-.05-.03-.22-.06-.45-.1-.67-.2.42-.47.82-.81,1.11-.44.38-.82.36-1.11.18-.86,2.46-1.02,5.15-.76,7.74,2.09,4.78,4.47,9.44,7.02,14.05-.49-7.96-6.18-18.28.96-25.53.07-.07.14-.11.23-.12.44-.51.92-1.01,1.49-1.48.23-.19.53-.11.68.09,2.72,3.62,2.12,8.11,1.33,12.37-.88,4.77-5.02,12.64-2.82,17,.12.23-.18.42-.39.35,2.18,3.84,4.46,7.64,6.74,11.45-.27-.96-.51-1.92-.69-2.89-.4-2.02-.81-4.72.13-6.87-.97-1.03-.26-3.42,1.38-3.74.33-.07.62-.02.89.06.04,0,.08-.01.12,0,1.45.46,1.87,2.27.86,3.35-.63.67-1.72,1.03-2.58.76-1.35,3.2-.27,7.7,1.09,11.35,1.08,1.8,2.16,3.61,3.23,5.41,6.04,10.21,11.18,20.74,16.23,31.32-.13-1.51-.09-3.05.05-4.6-.1-.03-.19-.1-.18-.23.09-.69.12-1.38.13-2.06-.14-.01-.28-.11-.28-.26-.02-1.76-.9-3.36-1.82-4.85-.42-.67-.88-1.32-1.41-1.93,0,.08,0,.16-.01.25-.03.21-.29.4-.53.33-1.25-.39-2.72-1.59-1.39-2.78.41-.37,1.07-.45,1.55-.24.74.32,1.04,1.1.92,1.81.62.66,1.14,1.54,1.38,1.89.42.61.93,1.39,1.35,2.22-.76-4.79-3.02-9.35-5.39-13.63-.09,0-.17.02-.27.02-1.52,0-2.56-1.63-2.6-2.79-.02-.68.46-1.25,1.11-1.63,1.19-.69,2.08.28,2.79.91.54.48.98,1.45.3,2.05-.03.03-.06.04-.1.06.03.45-.08.86-.42,1.11,2.57,4.67,5.17,9.69,5.56,14.99.46-2.5,1.03-5,1.49-7.43-.15,0-.3-.1-.23-.27.14-.35.3-.69.46-1.03.09-.52.18-1.04.25-1.54.26-1.89.32-3.76.29-5.63,0-.01-.02-.01-.03-.03-.83-2.28-1.91-4.43-3.12-6.53-.11-.03-.21-.08-.27-.18-2.43-4.13-5.47-7.99-7.43-12.33-.03-.07-.01-.13.02-.18-.96-1.85-1.8-3.75-2.41-5.76-.08-.26.26-.49.54-.45-.06-.6-.08-1.2-.05-1.8.02-.27.34-.41.61-.37,8.23,1.5,9.63,14.29,9.67,20.41.91,1.62,1.72,3.27,2.38,5.01-.37-5.97-1.63-11.89-1.64-17.89-.02-.03-.05-.04-.06-.07-3.61-5.9-7.61-15.68-4.14-22.56.15-.29.62-.45.87-.19.44.48.83.98,1.2,1.49.11-.5.24-.99.4-1.49.1-.32.63-.42.86-.19,4.19,4.43,6.47,14.2,2.63,20.15.02.68.05,1.36.09,2.03.03.48-.63.73-.93.48.02.17-.1.32-.27.41.23,6.63,1.29,13.15,1.65,19.78.01.03.02.06.03.09.01.04,0,.07-.02.1.03.49.06.97.07,1.46,0,.29-.01.58,0,.87.07-.23.13-.5.19-.74-.01-4.93.09-9.85-.7-14.75-.04-.23.37-.32.43-.09.79,3.54,1.18,7.22,1.27,10.92.04-.17.08-.32.12-.49,0-.02-.01-.03,0-.05.07-.26.14-.52.21-.78,1.84-7.37,4.45-15.86,11.92-18.77.3-.12.61,0,.68.27.12.47.17.93.18,1.4.09-.06.17-.12.26-.17.26-.16.54.07.53.29-.16,7.82-6.7,14.79-11.8,21.77-.48.75-.97,1.5-1.48,2.25-.05.08-.12.13-.2.16-.22.33-.4.66-.61.99-.06.73-.12,1.46-.2,2.18-.03.24-.48.29-.49.04-.01-.35-.02-.69-.03-1.04-.13.23-.29.45-.42.68-.13,1.59-.33,3.17-.55,4.75,1.32-1.95,3.18-3.64,5.41-4.82-.04-.11-.07-.23-.07-.35-.02-.84.85-1.59,1.81-1.65,1.23-.08,1.91,1.01,1.48,1.97-.07.15-.32.19-.4.04-.22-.4-.37-1.19-1-1.23-.47-.04-.95.33-1.02.73,0,.03,0,.06,0,.1.23-.11.47-.22.71-.32.46-.18.79.4.33.58-.26.11-.49.23-.74.34.4.39,1.09.66,1.56.61,1.17-.13,1.1-1.79.89-2.43-.08-.27.45-.44.55-.18.36.97.43,2.92-1.17,3.28-.92.2-2.02-.23-2.61-.91-3.06,1.64-4.8,4.03-6.1,6.79-.32,2.17-.64,4.32-.86,6.49,2.62-1.75,5.17-3.46,7.65-5.25.34-.54.68-1.09,1.03-1.63,2.13-3.62,4.2-7.25,6.78-10.67,1.2-1.58,5.16-4.57,6.97-4.14.16-.08.33-.19.48-.26.28-.12.56,0,.63.25.24.88.07,1.81-.35,2.73-.02.06-.01.1-.03.17-1.62,6.97-8.4,11.15-14.92,14.7-.18.29-.36.59-.55.88-.28.42-.81.28-.99-.04-.36.19-.72.38-1.07.57-1.81,1.17-3.69,2.26-5.67,3.26-.24,2.65-.33,5.31-.04,8,3.53,7.41,7.05,14.83,10.84,22.15.21.4-.51.73-.73.34-2.98-5.13-5.71-10.38-8.34-15.66-.02-.02-.05-.02-.06-.04-2.16-3.3-5.48-5.17-9.01-6.82.43.55.83,1.09,1.14,1.62.15.25-.05.69-.42.72-3.28.32-6.59-.59-9.67-1.73-2.65-.71-5.34-1.83-7.76-3.19-3.5-1.6-7.27-3.82-8.08-6.86ZM18.92,75.04c-1.22.5-1.19,2.18.11,3.69,1.66,1.93,3.91,3.53,6.34,4.92-.4-.65-.7-1.37-.83-2.16-.02-.1,0-.19.03-.27-2.31-1.56-5.04-3.72-5.66-6.17ZM28.04,78.68c-2.04-1.32-4.21-2.52-6.55-3.42-.43-.16-.81-.27-1.16-.32.38.68.75,1.54.91,1.74.78,1,1.83,1.85,2.83,2.68.59.49,1.21.96,1.85,1.4,2.31-.02,4.92.46,7.39,1.35-1.8-1.28-3.71-2.43-5.27-3.43ZM35.15,84.46c-.88-.48-5.18-2.29-7.44-2.52,1.29.79,2.65,1.53,4,2.22.81.41,2.16.82,3.43,1.24.13-.09.3-.11.47-.02.3.17.61.34.92.52.03.01.06.03.1.04.03-.18.03-.35,0-.54-.63-.44-1.18-.79-1.47-.94ZM37.3,87.35c-4.03-.54-7.91-3.02-10.96-4.99-.07.3.12.77.66,1.47.51.65,1.16,1.19,1.9,1.65.96.46,1.92.9,2.85,1.32.07.03.15.06.22.09,2.24.78,4.7,1.31,6.67,2.04.12.04.2.12.24.2.82.16,1.27.14,1.45-.01-1.02-.6-2.04-1.19-3.03-1.77ZM37.92,79.15c0,.15-.28.26-.39.13-.22-.27-.28-.33-.42-.61-.07-.15-.02-.36.18-.44.12-.05.25-.1.37-.15-.3-.33-.64-.62-1.11-.83-.46,1.07.5,1.91,1.53,2.44.11-.32.14-.64.06-.93-.12-.05-.21.03-.23.39ZM21.63,61.61c2.35,1.33,4.69,2.66,7.02,4.03-1.76-1.29-3.57-2.55-5.4-3.77-1.02-.33-2-.7-2.97-1.09.44.28.89.56,1.34.84ZM12.68,50.5c-.52-.32-8.01-3.19-6.87-.89.49.99,1.59,1.84,2.43,2.59,1.81,1.62,3.81,3.07,5.85,4.47,1.94,1.1,3.9,2.18,5.96,3.13.03.01.05.02.09.04-3.13-2.02-6.29-3.95-9.38-5.81-.33-.2.02-.68.37-.49.33.18.67.36,1.01.54-1.7-1.19-3.4-2.37-5.12-3.53-.4-.27.04-.88.47-.62,5.02,3.09,9.64,6.6,14.5,9.87,2.68,1.69,5.34,3.49,7.88,5.38-4.46-5.66-10.95-10.79-17.18-14.67ZM14.29,38.42c-2.67-3.43-4.79-7.22-7.86-10.39-3.9-4.03-2,3.11-1.61,3.9.66,1.33,1.54,2.58,2.47,3.79,1.65,1.59,3.25,3.24,4.83,4.9.02.01.04.03.05.04,1.63,1.37,3.26,2.69,4.96,3.97-.52-.54-1.02-1.1-1.52-1.67-.59-.53-1.16-1.04-1.67-1.5-3.87-3.45-7.13-6.95-8.82-11.63-.11-.3.38-.55.65-.39.95.56.66.34,1.43,1.13.26.27-.2.62-.49.39-.31.8-.03,1.52.85,2.14,1.29,2.33,3.53,4.36,5.5,6.27.19.19.4.37.59.55.21-.12.53-.14.7.08-.35-.47,2.23,2.28,3.61,3.84.22.2.43.39.64.59-.96-2.15-2.93-4.23-4.32-6.02ZM14.79,18.01c-.03-.19.3-.26.34-.07.03.16.08.31.1.46-.01-3.31.26-6.65-.01-9.95-.05-.58-.67-2.41-1.33-3.92-1.13,3.75-.38,8.15.22,11.62.28,1.64.72,3.25,1.2,4.85-.19-.99-.37-1.99-.51-2.99ZM16.44,22.67c.13-1.54.21-3.1.24-4.65-.03.17-.19.22-.33.19-.05,1.54-.05,3.04.09,4.46ZM12.38,2.52c-1.2,2.94-.9,6.34-.51,9.26.21,1.62.63,3.22,1.13,4.79-.99-4.41-1.21-9.17.44-13.01-.46-.91-.88-1.46-1.05-1.04ZM19.2,15.45c.37-2.7.39-5.4.08-8.07-.12-1.07-2.22-9.18-4.6-4.8-.06.12-.1.25-.16.37,1.5,2.29,1.97,5.04,2.04,7.95,0-.04,0-.07,0-.11,0-.24.03-.44.04-.62-.03-.98-.06-1.97-.08-2.94,0-.5.88-.47.9.02.04,1.23.02,2.45-.02,3.67.06.53.11,1.04.11,1.39.05,4.39-.17,8.79-.36,13.19.91-3.33,1.59-6.7,2.05-10.05ZM22.63,29c.24-.03.48-.36.61-.52.25-.3.45-.65.57-1.02-.09-.12-.21-.23-.36-.32-.59-.33-.91,0-1.05.43.28-.07.62.1.47.4-.15.29-.27.59-.39.88.05.09.09.15.16.15ZM32.78,29.53c-.14-1.35-.45-2.66-1.01-3.88-.23-.51-.65-.2-1.11.48,1.06.91,1.74,2.07,2.12,3.4ZM30.04,45.15c.12-.42.24-.84.36-1.25.01-.05.03-.09.04-.14-.13-.05-.24-.15-.22-.3.4-2.64.99-5.27,1.33-7.92.25-1.91-.21-7.91-1.69-8.03-.93,1.84-1.82,4.22-1.84,4.35-.44,2.8-.1,5.63.22,8.38.14,1.24.33,2.48.52,3.71.14-3.97.43-7.97.35-11.89,0-.3.59-.36.62-.06.29,4.27.49,8.72.32,13.14ZM37.67,54.64c-.14.17-.26.35-.38.54.33.12.75-.06,1.04-.29,0,0,0,0,0-.01-.06-.26-.17-.5-.29-.74-.11-.23.28-.41.42-.19.04.07.09.12.14.19.09-.28.1-.56-.06-.85-.18-.32-.68-.63-1.1-.35-.41.27-.68,1.03-.6,1.6.06-.08.1-.17.17-.24.33-.37.99-.03.67.36ZM52.67,88.49c-.06.02-.12.04-.18.08-.67.5.03,1.06.63,1.37,0-.14-.01-.27-.03-.41-.14-.12-.27-.25-.33-.4-.03-.08-.01-.2.1-.24.01,0,.03,0,.04,0-.06-.14-.14-.27-.23-.4ZM51.19,78.04c.07.11.15.24.23.38.07-.02.14-.03.21-.02.26-.05.5-.12.66-.24-.06-.31-.19-.62-.36-.91-.02.05-.06.09-.14.11-.25.04-.5.05-.75.08-.09.01-.13.02-.15.03.05.2.2.41.32.57ZM51.73,76.96c-.08-.11-.17-.22-.26-.31-.05-.05-.06-.11-.05-.16-.34-.22-.72-.34-1.09-.16-.49.23-.67.69-.64,1.13.05.53.37,1.07.83,1.46.01-.09.07-.18.18-.26-.26.19-.04.37-.24.04-.08-.14-.18-.28-.26-.42-.16-.25-.34-.56-.31-.86.06-.88,1.22-.75,1.84-.45ZM49.64,56.55c.11.34.2.59.22.67.74,1.74,1.74,3.38,2.74,5,.41.66.84,1.31,1.29,1.94-1.24-2.62-2.51-5.23-4.25-7.61ZM56.47,67.04c-.21-1.39-.49-2.76-.82-4.12-.88-3.72-2.33-8.1-5.93-10.4-1.07-.68-1.01.52-.71,1.88,3.8,3.21,5.42,8.37,7.46,12.65ZM57.33,70.72c.32.38-.21-.84-.51-1.86-.2.11-.45.13-.62-.06-.07-.08-.13-.15-.2-.23.46.71.9,1.43,1.33,2.15ZM57.51,36.95c.15.19.12,1.13.04,2.17,2.49,4.53,2.65,9.86,2.79,15.07,2.12-5.67.54-12.94-2.83-17.24ZM57.38,40.87c-.07.68-.12,1.22-.11,1.36.13,1.98.55,3.93.97,5.86.28,1.32.62,2.64.94,3.95-.06-1.56-.13-3.12-.28-4.68-.21-2.24-.73-4.39-1.52-6.5ZM58.79,55.24c-1.27-5.39-3.29-10.95-2.52-16.5-.04-.07-.08-.14-.12-.21-1.69-2.85-1.45-.6-1.69.89-.91,5.7,1.49,12.19,4.22,17.34.03-.5.07-1.02.12-1.52ZM70.76,59.92c-.08.08-.14.16-.22.24.25.03.48.23.47.45-.01.4-.05.8-.09,1.19,1.03-1.19,2.21-2.26,3.55-3.19.46-2.92-3.34.91-3.72,1.3ZM68.78,72.19c1.92-2.71,3.77-5.41,5.24-8.32.1-.2.71-2.22.99-3.57-.5,1.76-1.52,3.46-2.51,5.14-1.35,2.3-2.6,4.63-3.86,6.96.05-.07.1-.14.15-.21ZM64.66,77.9c.79-1.34,1.51-2.72,2.25-4.08,1.58-2.95,3.08-5.92,4.81-8.81,1.08-1.8,1.95-3.43,2.49-5.33-1.06.89-1.93,1.95-2.75,2.99-.3.37-.56.77-.83,1.15-.99,4.86-3.67,9.55-6.31,14.1-.1.31-.21.62-.31.92.22-.32.43-.63.65-.95ZM63.6,77.04c1.45-4.59,3.12-9.54,6.03-13.58.11-.57.24-1.14.31-1.71-.09.69-2.46,3.74-3.15,4.73-.09.2-.18.41-.27.61-1.58,3.62-2.57,7.38-3.59,11.13.22-.39.44-.78.66-1.17ZM79.23,78.23c-2.69,1.06-4.84,4.47-6.46,7.29.57-.66,1.14-1.33,1.76-1.97,1.37-1.43,3.84-4.06,5.97-5.57-.3-.04-.71.04-1.27.25ZM75.3,88.76c1.27-1.36,2.41-2.79,3.51-4.25,0,0,0,0,0,0-.85.83-1.68,1.6-2.32,2.23-2.13,2.1-4.35,4.09-6.69,5.94,2.02-1.08,3.95-2.27,5.5-3.92ZM74,87.99c2.24-2.01,4.37-4.12,6.23-6.4.14-.18.26-.33.38-.48.23-.55.4-1.09.5-1.56-.68.35-1.91,1.3-2.93,2.14-3.43,2.83-6.06,6.06-8.48,9.53-.16.23-.37.51-.61.81,1.68-1.28,3.32-2.61,4.92-4.05ZM30.52,100.05c4.07,3.72,10.43,6.35,16.18,7.6,3.05.67,2.71-.4,1.66-1.62-.96-.44-1.92-.89-2.85-1.37-.17.11-.39.16-.59.07-.83-.4-.75-.36-1.43-.88-.13-.1-.15-.24-.11-.38-.29-.18-.57-.35-.85-.54-1.76-1.2-3.86-2.05-6.03-2.72.74.51,1.45.97,1.88,1.25,2.72,1.8,5.65,3.32,8.26,5.25.3.22-.15.66-.47.48-4.36-2.41-8.89-4.57-12.45-7.76-.48-.12-.96-.24-1.44-.36-1.49-.36-2.41-.47-2.94-.42.17.35.55.81,1.2,1.4Z"/></svg>