<?xml version="1.0" encoding="UTF-8"?><svg id="BACKGROUND_2" xmlns="http://www.w3.org/2000/svg" viewBox="0 0 75.98 87.01"><defs><style>.cls-1{fill:#c87e6b;fill-rule:evenodd;}</style></defs><path class="cls-1" d="M73.22,48.81c-2.67,2.75-3.7,6.09-4.49,9.75-.98,4.49-.31,8.69-.7,13.13-.05.06-.09.12-.14.18-.18.25-.11.49.06.64,0,.02,0,.05,0,.07-.47.91-.96,1.81-1.44,2.67-1.85-3.16-3.88-6.25-6.04-9.27.67-2.13.98-4.44,1.05-6.82.02-.02.05-.03.06-.06,4.76-9.37,3.53-21.9-3.26-29.92-.18-.21-.58-.29-.79-.07-3.24,3.41-2.88,8.87-2.72,13.21.26,6.68,2.9,12.53,4.98,18.79-.06,1.21-.13,2.43-.18,3.66-4.01-5.52-8.32-10.83-12.35-16,.11-1.62.07-3.26-.07-4.9.22.14.55.07.61-.28,1.65-9.51.35-21.03-6.98-28.1-.3-.28-.85-.27-.99.18-3.18,9.85-1.08,19.77,5.95,27.41.17,1.47.32,2.94.49,4.42-3.7-4.77-7.52-9.49-11.62-13.95-.08-2.8-.88-5.56-1.93-8.27-.54-7.82-1.92-16.3-8.81-21.09-.28-.19-.67-.05-.79.25-2.7,6.85,3.15,18.65,9.11,22.8.54,1.7,1.02,3.41,1.37,5.16-2.8-2.98-5.73-5.83-8.83-8.47-1-2.37-2.38-4.54-3.85-6.65.07-.11.1-.25.04-.42-1.55-4.02-3.23-7.2-5.86-10.6C13.26,3.89,11.44,1.09,8.48.03c-.32-.11-.67.11-.7.44-.54,7.12,6.23,14.29,12.48,17.03,0,0,.01,0,.02,0,.63.92,1.22,1.85,1.7,2.8.33.66.59,1.35.85,2.02-1.56-1.25-3.17-2.45-4.82-3.58-1.28-3.07-4.98-5.77-7.65-7.36-3.26-1.94-7.02-2.38-10.2-.13-.2.14-.21.46-.06.64,4.26,5.01,10.49,7.01,16.99,7.22.19.2.38.39.57.57.16.15.45.12.57-.03,1.83,1.36,3.6,2.77,5.32,4.25.17.29.35.58.57.85.15.19.36.2.53.12.35.31.69.63,1.03.94-.81-.25-1.64-.42-2.39-.58-.35-.07-.7-.15-1.05-.23.08-.16.06-.39-.09-.53-3.28-2.92-7.13-3.66-11.38-3.97-1.73-.13-7.66-.96-8.5,1.36-1.01,2.78,5.81,3.76,7.24,4.37,4.32,1.84,10.45,4.5,14.18.24.07-.08.06-.17.02-.25.45.12.9.23,1.35.37.86.26,1.65.68,2.48.96,3.42,3.25,6.62,6.72,9.68,10.32-1.3-.45-2.84-.5-4.08-.56-.4-.02-.8,0-1.21,0,.1-.2.03-.49-.21-.61-5.26-2.62-14.07-3.38-18.86.47-.25.2-.24.52-.07.76,3.64,5.12,17.89,6.69,20.88.11.68.07,1.35.18,2.02.37,1.12.32,2.07,1,3.15,1.38,1.87,2.26,3.69,4.58,5.46,6.92.73.96,1.45,1.92,2.17,2.88,0,.02,0,.04,0,.07.02.16.13.25.25.27.64.84,1.28,1.69,1.91,2.53-.8-.26-1.7-.39-2.64-.45-.02-.05-.02-.1-.07-.16-2.62-2.9-8.61-2.92-12.19-2.86-4.16.08-8.78,1.03-11.9,3.92-.24.22-.21.55.03.74,3.29,2.63,8.27,2.92,12.3,3.4,4.65.55,9.23.1,12.32-3.71,1.33.36,2.55.92,3.88,1.43,3.6,4.82,7.12,9.67,10.46,14.63-.85-.45-1.76-.8-2.71-1.08-2.97-2.55-7.49-4.16-11.06-5.11-4.31-1.15-8.87-.82-12.27,2.23-.21.19-.28.55-.07.76,5.74,5.82,17.76,9.42,24.78,3.63,1.05.5,1.99,1.14,2.86,1.89,3.2,4.88,6.22,9.87,8.93,15.1.2.39.77.13.62-.28-1.32-3.57-3-7.04-4.93-10.42.78-1.28,1.55-2.7,2.22-4.19,2.84-3.02,5.87-5.81,6.51-10.11.66-4.42-.29-8.59-1.62-12.8-.11-.34-.67-.46-.92-.2ZM56.55,48.67c-1.12-4.09-.91-8.71-.52-12.89.3-3.34,1.44-6.57,4.09-2.23,1.6,2.63,2.32,5.7,2.81,8.7.81,4.94-.19,9.69-1.41,14.43-.15-4.53-.97-9.15-1.67-13.1-.06-.36-.63-.26-.56.1.95,5.18.86,10.18.62,15.23-.99-3.45-2.39-6.76-3.35-10.23ZM40.04,18.91c1.16-5.13,5.78,7.61,6.27,9.25,1.41,4.68.7,9.24.67,13.95-.53-4.16-1.6-8.33-2.39-12.3-.08-.4-.7-.29-.63.1.69,3.87,1.17,7.72,1.62,11.57-4.68-7.05-7.55-13.71-5.55-22.58ZM23.73,10.61c-.38-1.71-.38-3.43.07-5.12.09-.34,4.53,5.21,4.93,6.01,1.57,3.15,2.02,6.68,2.47,10.17-1.01-2.27-2.05-4.5-2.84-6.69-.11-.31-.57-.1-.47.21,1.2,3.56,2.65,7.04,3.86,10.59-3.89-4.3-6.77-9.49-8.03-15.16ZM8.81,3.67c-.85-3.05,1.71-1.03,2.7.06.95,1.05,1.78,2.2,2.63,3.32,1.55,2.02,2.74,4.01,3.85,6.08-.76-1.04-1.63-2.08-2.54-2.58,0,0,0,0,0,0-.03-.02-.07-.02-.11-.01-.02,0-.03.02-.04.03-.02.01-.03.02-.04.04-.02.03-.02.07,0,.11,0,0,0,0,0,0,.47,1.35,2.14,2.82,2.96,3.93.32.43.65.87.98,1.32-4.51-3.06-8.89-6.97-10.38-12.3ZM7.87,16.43c-2.12-.73-3.93-1.98-5.56-3.47-2.03-1.86,1.01-2.34,2.49-2.38,4.51-.1,7.42,3.07,10.14,6.16-.38-.23-.75-.48-1.14-.7,0,0,0,0,0-.01-.13-.15-.26-.29-.39-.44-.03-.03-.09.01-.06.05.07.09.15.18.22.27-.48-.28-.96-.57-1.45-.84-.21-.12-.43.18-.22.31,1.5.92,2.95,1.89,4.39,2.89.03.03.06.06.08.09-2.84-.65-5.74-.96-8.52-1.92ZM9.82,25.38c-1.24-.54-2.56-.9-3.85-1.32-1.73-.57-3.89-2.14-.98-2.62,2.51-.41,5.24-.05,7.75.23,1.52.17,3.02.4,4.47.9,1.39.48,2.56,1.41,3.83,2.14-1.89-.4-3.78-.8-5.66-1.23-.18-.04-.35.2-.16.31,1.86,1.03,3.95,1.4,6.01,1.82.69.14,1.38.3,2.06.46-4.19,3.33-9.15,1.2-13.48-.7ZM16.74,39.58c-.59-.24-3.17-1.58-2.53-2.09,1.78-1.42,4.34-1.7,6.53-1.76,3.38-.09,6.48,1.12,9.73,1.61-2.05.15-4.09.49-6.14.69-.29.03-.2.45.07.43,2.52-.16,5.03-.49,7.56-.52.35,0,.69.03,1.03.05-3.4,4.51-11.75,3.46-16.26,1.59ZM32.54,55.93c-1.92-.24-3.82-.58-5.7-1.03-.48-.12-4.22-1.38-3.72-1.76,3.14-2.41,7.76-2.87,11.59-2.91,3.28-.04,6.03.98,8.99,1.8-2.36.14-4.71.58-6.3.77-.35.04-.25.57.09.53,2.28-.24,4.54-.44,6.83-.34.49.02.96.09,1.4.17-3.6,3.73-8.43,3.37-13.19,2.77ZM45.66,70.99c-2.27-.51-4.44-1.47-6.45-2.62-.84-.49-1.61-1.09-2.36-1.69-1.61-1.28.22-1.66,1.26-2.17,5.52-2.73,11.18.33,16.27,3.11-1.51-.16-3.04-.2-4.5-.19-.3,0-.36.44-.04.47,2.34.21,4.66.47,6.94,1,.56.29,1.12.57,1.66.82-4.11,1.87-8.18,2.3-12.76,1.27ZM74.48,54.97c.51,2.58.43,5.18-.16,7.74-.59,2.56-2.24,4.37-3.92,6.19.65-2.14.97-4.33.62-6.39-.06-.37-.63-.27-.58.1.36,2.7-.4,5.4-1.53,7.96-.01.02-.03.03-.04.05.16-2.51-.08-5.02.07-7.54.22-3.79,1.63-8.51,3.64-11.75.87-1.41,1.88,3.48,1.91,3.65Z"/></svg>