<?xml version="1.0" encoding="UTF-8"?><svg id="BACKGROUND_2" xmlns="http://www.w3.org/2000/svg" viewBox="0 0 189.98 373"><defs><style>.cls-1{fill:#8a6a3e;fill-rule:evenodd;}</style></defs><path class="cls-1" d="M75.29,197.41c1.01-1.75,2.41-3.36,4.11-4.46.18-.12.45.1.3.29-1.3,1.56-2.89,2.76-3.98,4.5-.19.29-.6-.03-.42-.32ZM189.96,10.64c-.25,2.38-5,3.29-6.73,3.74-2.15.56-5.05,1.57-7.41,1.22-.08.07-.18.11-.29.11h-.16c-.29.02-.59-.23-.55-.53-.45.54-.92,1.07-1.4,1.57-.24.54-.48,1.06-.75,1.56,0,.11-.03.23-.14.33-.07.06-.13.13-.2.19-.23.38-.44.77-.73,1.13-.15.19-.37.19-.55.1-.36.35-.71.7-1.07,1.04,2.57-.97,5.28-1.46,7.95-.88,1.83.4,6.44,3.11,5.07,5.7-1.31,2.48-5.08,2.64-7.52,2.56-2.19-.07-5.61-.27-7.46-1.91-.36.02-.73.01-1.09-.09-.44-.12-.34-.65-.05-.86-.41-.05-.81-.15-1.21-.3-2.86,2.8-5.68,5.64-8.47,8.51,3.26-1.51,6.79-2.67,10.22-2.7,2.62-.02,9.19,1.24,9.27,5,.07,3.57-4.79,4.6-7.61,4.74-3.83.2-8.45-.32-12.23-1.91-.5.06-1.01.09-1.53.06-.43-.03-.5-.65-.12-.81.01-.01.03-.02.04-.02-.41-.23-.83-.46-1.21-.72-.06-.04-.07-.11-.12-.17-3.13,3.28-6.2,6.63-9.23,9.99,2.67-1.52,5.53-2.67,8.46-3.17,3.93-.67,10.51-.57,12.27,3.92,1.29,3.27-4.04,5.71-6.29,6.27-5.91,1.47-13.3,2.25-19.19.1-.57.12-1.16.18-1.76.22-1.75,2.02-3.48,4.06-5.19,6.11.77-.22,1.52-.4,2.2-.53,4.84-.94,12.13-1.77,16.49,1.27,4.22,2.94-.25,6.35-3.54,7.42-6.75,2.2-15.72,3.41-22.58,1.01-.03,0-.03-.03-.06-.05-3.16,3.96-6.24,7.97-9.29,12.01,5.41-3,12.01-5.34,17.89-4.8,2.96.27,10.63,3.46,7.64,7.81-2.73,3.96-10.29,3.71-14.43,3.77-4.49.07-10.81.66-15.43-.87-3.47,4.75-6.82,9.57-10.12,14.43,8.21-4.26,23.88-6.55,26.85-.28,6.44,13.61-25.16,10.58-31.97,7.9-3.57,5.44-7.03,10.96-10.4,16.53,6.19-4.3,13.28-7.5,21.03-6.35,3.66.55,10.98,3.64,7.75,8.69-2.92,4.58-10.71,4.76-15.47,4.85-4.74.09-11.45.61-16.14-1.31-.26.08-.53.15-.79.24-5.86,9.99-11.37,20.18-16.59,30.53,6.31-4.98,15.79-7.79,22.4-9.81,4.29-1.31,17.68-3.56,19.46,2.9,1.21,4.41-10.45,8.5-13.03,9.41-9.47,3.35-21.17,2.76-31.34,2.49-2.54,5.15-5.02,10.34-7.39,15.57-5.02,11.1-9.77,22.38-14.24,33.78,3.45-3.89,9.18-7.02,14.56-9.31,11.44-9.56,22.53-31.62,39.91-29.01.63.1.96.69.76,1.28-2.46,7.54-7.91,15.39-15.29,18.77-.38.18-.63-.34-.35-.6,2.91-2.71,6.15-5.07,8.5-8.35.66-.93,7.01-10.12,3.09-9.43-6.64,1.17-12.23,5.4-17.25,9.7-5.53,4.74-10.16,11.58-15.95,16.28,2.44-.92,4.67-1.65,6.41-2.16.16-.05.32-.1.48-.15,4.93-4.76,8.56-11.94,14.7-15.21.27-.14.58.25.37.47-2.7,2.96-5.67,5.64-8.28,8.71-1.64,1.93-3.36,3.77-5.17,5.53,8.8-2.65,17.5-5.46,25.76-9.63,6.32-3.19,11.93-7.94,19.18-8.59.72-.07,1.16.55.96,1.21-2.88,9.73-11.25,22.36-21.54,27.49,1.82-.19,3.69-.17,5.23-.33,5.49-.56,11.33-2.5,16.61-5.04-.33-.41-.42-.97-.08-1.45-.56-.35-.77-1.22-.13-1.68,1.77-1.26,3.31-1.81,5.34-2.59,1.34-.52,2.65,1.19,1.84,2.2.6.22.67,1.25,0,1.6-6.05,3.18-12.21,6.05-18.92,7.57-.85.19-1.81.3-2.83.39,4.82-.12,9.66-.65,14.4-1.05,2.59-.22,9.7-1.55,11.18,1.26.19.36.04.88-.28,1.11-.46.33-.89.6-1.31.83-.14.13-.3.23-.51.32-1.07.41-2.47,1.41-3.65.77-.21-.11-.36-.26-.49-.41-.68.03-1.34.08-2.03.06-.67-.02-.93-1.01-.39-1.38.61-.42,1.17-.72,1.71-.97-1.67-.01-3.36,0-3.97.07-2.77.29-5.57.76-8.36.82-4.77.1-9.69.07-14.44-.69-.6.12-1.18.25-1.73.43,1.78.67,3.52,1.45,5.23,2.29,6.62,1.72,13.29,3.24,19.84,5.19,2.79.83,5.52,1.74,7.75,3.3.35-.08.72-.01,1.05.3.14.08.2.15.28.22,1.1-.47,2.66.5,2.01,1.85-.12.25-.23.5-.35.75.24.38.47.75.67,1.17.42.89-.78,1.89-1.55,1.21-1.64-1.45-1.61-1.42-3.04-3.19-.35-.43-.34-.94-.14-1.38-3.35-2.43-8.73-3.18-12.08-4.19-3.22-.98-6.49-1.76-9.74-2.62,1.74,1.08,3.44,2.24,5.05,3.54,4.2,3.43,12.89,9.39,13.84,14.96.07.39-.17.8-.53.95-11.7,4.79-27.23-2.33-38.55-7.07,9.41,8.68,13.8,21.43,16,33.81.11.6-.53,1.08-1.08.86-9.71-3.83-17.92-10.68-23.87-19.28-6.24-9.02-12.31-24.34-25.09-25.56-2.69.38-5.17,1.35-7.27,3.21-3.44,9.14-6.69,18.37-9.72,27.67,1.9-3.43,4.27-6.58,6.88-9.04,3.06-2.88,11.23-7.47,14.24-1.61,2.58,5.02-4.97,10.6-8.26,13.06-4.03,3.02-10.55,8.59-15.92,8.64-.02.05-.03.11-.04.16-.07.29-.32.42-.55.42-10.52,34.62-17.93,70.17-21.02,106.1-.14,1.62-2.64,1.33-2.51-.28,3.39-41,12.58-82.03,25.75-121.58-5.23-4.96-10.95-10.41-14.24-16.81-1.82-3.53-4.86-12.76.47-15.16,9.15-4.12,15.54,12.32,16.76,23.16,1.53-4.36,3.12-8.69,4.73-13.01.01-.12.05-.24.13-.36h0c3.37-8.99,6.91-17.9,10.66-26.68-7.72-6.87-15.46-14.85-19.51-24.5-2.41-5.74-5.64-17.96.63-22.82,4.66-3.62,10.63,6.88,12.13,9.94,5.05,10.32,7.47,22.11,8.37,33.65,2.72-6.27,5.5-12.49,8.38-18.63,1.1-2.34,2.24-4.66,3.37-6.99-.06-.05-.11-.11-.11-.21-1.1-13.58-11.75-22.07-20.17-31.59-9.37-10.59-24.01-15.82-38.1-17.24-.83-.09-.94-1.04-.43-1.54,6.85-6.84,26.57-9.45,35.99-2.85-4.12-6.71-9.44-13.61-15.68-17.9-.17.14-.36.28-.58.42-2.7,1.64-4.15-.72-4.51-3.04-.15-.15-.29-.27-.45-.44-.58-.64-.12-1.68.64-1.91.43-.57,1.31-.71,1.94-.28.87.6,1.68,1.22,2.47,1.88.3.21.57.43.79.66.05.05.1.09.15.13.25.23.36.5.42.76,6.04,5.92,11.64,12.55,15.92,19.89-.74-1.68-1.44-3.39-2.06-5.13-.15.19-.51.18-.65-.07-4-7.15-5.11-15.56-9.02-22.83-.5.68-1.73.56-1.89-.44-.33-2.06-.84-3.78-2.1-5.49-.53-.72-.26-1.57.31-2.03-.05-.43-.09-.88-.1-1.36-.03-1.56,2.54-1.9,2.99-.44.41,1.31.67,2.57.9,3.92.04.21,0,.41-.05.61.22.55.46,1.1.76,1.64.25.46-.33,1.03-.78.8-.01,0-.03-.01-.05-.02.02.09.04.18.05.27.12.07.23.17.3.29,3.06,5.28,5.52,11.39,7.38,17.48-1.56-9.11-1.43-21.11,4.6-26.08.35-.29,1.03-.26,1.28.16,3.88,6.4,8.18,12.47,11.74,18.88-1.36-6.6-2.2-13.44-3.98-19.93-.07.04-.14.08-.22.11,0,.14,0,.28,0,.42-.04.85-1.12.8-1.46.22-1.75-3.01-2.17-5.96-1.54-9.37.24-1.29,2.08-2.15,2.94-.83,1.8,2.77,1.95,5.23,1.01,8.29,1.36,7.95,3.94,15.75,4.7,23.82.17.34.35.67.53,1-1.37-7.11-.07-14.3-.58-21.48-.11-.13-.17-.3-.11-.51.03.01.05.03.08.04,0-.08,0-.15-.01-.23-.09-.02-.16-.09-.23-.16-.56-.15-1.01-.6-.84-1.29.09-.38.17-.68.23-.94-.35-2.36.03-4.43,1.04-6.91.55-1.36,2.58-1.11,2.8.33.49,3.03.26,5.7-1.61,8.14-.06.28-.15.57-.24.86.09.58.09.64-.04.12-.05.15-.08.3-.14.46-.03.07-.08.08-.12.13.6.53.77,1.29.49,2.29.02.67.02,1.34.03,2.01-.04,1.88-.12,3.76-.2,5.64-.14,3.05-.26,6.08-.07,9.1.73-9.29,4.69-17.96,8.49-26.59.36-.81,1.51-.84,1.89-.02,5.56,12.18,4.24,25.01,2.39,37.93-2.6,18.18-5.95,36.23-4.29,54.62,5.51-11.04,11.34-21.9,17.5-32.54-.2.01-.4.02-.59-.01-.29-.05-.43-.31-.35-.58.24-.81.92-1.37,1.73-1.78-3.57-3.62-5.4-9.84-6.5-14.38-1-4.1-2.94-11.84.77-15.29,4.54-4.22,8.44-.01,10.01,4.78,1.79,5.43,1.5,12.22.16,18.34,3.25-5.39,6.59-10.72,10.04-15.98-4.14-3.4-6.49-9.83-7.75-14.77-1.15-4.48-2.71-11.97,1.34-15.63,4.37-3.94,7.56.73,8.89,5.02,2.06,6.66,1.81,14.36.28,21.29,4.02-6.01,8.13-11.97,12.41-17.8-4.2-2.91-6.13-9.17-6.93-13.95-.59-3.49-1.34-10.77,2.93-12.59,3.69-1.57,6.09,3.46,6.93,6.25,1.41,4.67,1.69,10.69.37,15.84,3.32-4.42,6.71-8.79,10.18-13.08-4.68-1.87-6.12-10.26-6.8-14.49-.65-4.07-2.2-12.55,1.46-15.81,4.83-4.32,7.87,1.85,9.21,6.07,1.92,6.05,1.48,12.77-.27,18.93.57-.53,1.23-.99,1.94-1.4,3.14-3.74,6.33-7.46,9.61-11.1,0,0,0,0,0,0-.12.07-.25.1-.4.07-4.6-1.37-5.06-12.12-5.13-15.69-.09-4.03-.43-11.98,5.14-12.35,8.1-.54,6.66,16.86,3.33,24.74,3.09-3.37,6.21-6.7,9.41-9.97-4.42-1.88-6.65-21.59-1.2-24.45,7.16-3.76,5.2,17.73,2.82,22.61.02,0,.04-.01.06-.03,0,0,0-.02.02-.02.14-.08.29-.16.43-.24,2.12-2.14,4.26-4.28,6.43-6.38-.21-.14-.32-.4-.18-.68.05-.1.1-.2.15-.3-.07-.02-.15-.05-.18-.14-.75-1.66-.48-4.11-.62-5.91-.17-2.25-.41-4.56-.23-6.82.2-2.58,1.37-8.37,5.13-8.13,3.49.22,3.09,5.44,2.77,7.84-.34,2.66-.9,5.83-2.04,8.62.03-.03.06-.07.11-.09.89-.57,1.84-1.13,2.82-1.64.61-.57,1.2-1.14,1.82-1.7-.31-.23-.49-.62-.3-1.08.15-.35.3-.71.44-1.07.6-6.02,4.58-23.72,11.54-17.08,2.43,2.32-1,7.12-2.37,9.04-.56.78-1.21,1.73-1.93,2.69.74-.66,1.57-1.25,2.3-1.75,1.77-1.21,3.69-2.42,5.75-3.05,1.77-.54,5.86-.77,5.56,2.23ZM33.24,256.46c-.06.12-.15.24-.21.35.28.14.44.45.17.75-1.65,1.85-3.45,3.52-5.26,5.19,3.3-1.68,6.54-3.39,9.62-5.5,3.65-2.5,9.86-6.23,11.08-10.82,1.19-4.46-5.4-4.79-8.02-3.39-2.98,1.6-5.4,4.05-7.37,6.78-1.22,1.68-2.38,3.46-3.44,5.32.97-1.26,2-2.47,3.16-3.51.34-.3.9.13.71.54-.91,1.96-2.51,3.54-3.81,5.25-.69.9-1.63,1.99-2.33,3.14,1.58-1.69,3.24-3.33,5-4.62.33-.25.92.1.7.52ZM24.22,227.81c-1.01-2.39-1.98-4.71-4.03-6.41-2.75-2.29-7.42-3.64-7.94,1.74-.82,8.41,5.28,14.54,10.97,20.41-.49-1.32-.86-2.7-1.37-4.01-.25-.66.72-1.08,1.01-.43.28.62.53,1.25.77,1.89.36-.24.89-.21,1.05.3.54,1.67,1.22,3.28,1.68,4.97.06.22.01.39-.09.53.51.57,1.01,1.14,1.49,1.71.28-.84.56-1.68.84-2.51-1.12-6.19-1.84-12.13-4.38-18.18ZM70.1,244.54c3.56,5.12,7.44,10.56,12.37,14.48,3.48,2.76,12.92,10.99,10.3,1.38-3.02-11.05-7.84-19.72-15.92-27.82-.1-.1-.13-.23-.13-.35-3.55-1.47-7.97-3.59-12.63-5.41,2.36,1.79,4.42,4,6.19,6.42,4.27,5.82,8.95,12.45,11.73,19.12.13.31-.28.7-.55.43-4.39-4.15-6.71-10.27-10.08-15.23-3.79-5.56-7.9-9.73-13.58-12.92-2.02-.58-4.04-1.06-6.01-1.32,8.37,3.14,13.92,14.9,18.31,21.21ZM89.97,230.19c-9.77-2.96-18.67-8.38-29.07-9.12-4.5-.32-10.48-.8-15.43.56,12.09-1.86,28.22,7.62,37.71,11.32,8.63,3.37,20.18,9.29,29.72,7.46,8.73-1.67-19.6-20.87-22.21-21.87-1.02-.39-2.09-.76-3.18-1.11-.05.04-.12.06-.17.1-.25.21-.55-.04-.52-.31-.6-.19-1.19-.38-1.81-.55-.1,0-.19.03-.3.04-.18.01-.31-.09-.4-.22-13.28-3.57-29.89-3.75-40.82,4.57,3.68-1.36,8.27-1.51,11.39-1.55,12.71-.14,24.14,4.27,35.26,10.2.29.15.13.57-.19.47ZM39.76,223.17c1.16-1.36,2.52-2.58,4.01-3.67,4.49-5.57,12.53-6.33,19.1-7.72,12.47-2.63,23.71-6.42,34.26-13.67.22-.15.54.12.35.34-5.99,6.68-14.71,9.68-23.19,11.95-2.82.75-5.8,1.34-8.8,1.93,3.84-.3,7.56-.18,10.81.31,3.48.52,6.93,1.33,10.3,2.38,8.64-3.58,15.68-9.63,20.71-17.67,2.89-4.62,7.79-12.85-1.75-7.65-3.58,1.95-7.04,4.3-10.79,5.92-10.31,4.46-20.6,7.36-31.1,11.06-7.57,2.67-20.53,8.09-23.91,16.49ZM45.4,197.65s.01.09.01.13c.05.47-.58.66-.79.22-2.15-4.44-2.54-10.9-6.4-14.38-.03,1.35.25,2.67.74,3.94,1.54,2.87,3.26,5.64,4.72,8.55.36.72-.8,1.42-1.22.72-1.98-3.21-4.82-6.98-5.64-10.92-.35-.72-.72-1.44-1.01-2.19-.24-.59.46-.97.87-.69.03-.35.02-.71.09-1.07.13-.62.74-.88,1.28-.54,3.49,2.17,5.51,6.98,6.56,11.48-.78-5.52-1.19-11.13-2.6-16.52-1.17-4.48-2.65-8.99-5-13.02-.97-1.65-8.11-13.6-10.75-6.01-5.73,16.46,8.33,32.37,19.74,42.94-.23-.87-.42-1.75-.6-2.64ZM2.7,121.31c2.57-2.56,24.97,6.48,27.83,8.61,6.3,4.67,12.46,11.24,17.65,17.74-2.64-4.54-5.03-9.11-7.96-13.48-.19-.29.16-.7.45-.45,3.79,3.19,5.42,7.96,7.8,12.16,2.75,4.83,6.33,8.97,8.57,14.08-2.03-5.15-4.88-10.39-6.25-13.93-2.98-7.69-7.18-14.71-10.85-22-.16.1-.39.09-.51-.12-.24-.45-.49-.9-.74-1.36-8.66-6.19-27.64-9.56-36-1.25ZM39.29,83.4c-1.34-2.22-3.91,10.91-3.94,11.41-.16,2.94-.43,6.03-.08,8.95,1.08,9.07,5.1,16.92,9.33,24.81,4.1,7.63,6.83,15.77,10.21,23.73,1.13,2.66,3.01,6.25,4.32,9.89-1.04-9.07-4.26-17.71-6.76-26.5-2.59-9.08-4.88-18.2-7.98-27.13-.1-.3.3-.47.45-.2,5.04,9.22,6.76,19.86,9.5,29.91,1.64,6.01,3.61,11.93,4.81,17.99-.57-6.15-1.24-12.28-1.58-18.46-.54-9.91-.2-20.25-3.94-29.67-3.62-9.13-9.31-16.44-14.34-24.72ZM64.83,107.72c.49-4.66,1.05-9.41.96-14.11,0,.28-1.87-19.67-3.62-15.79-4.2,9.37-6.64,18.3-7.46,28.47,1.53,3.74,2.69,7.67,3.25,11.93,1.25,9.43,2.05,19.15,2.59,28.87.71-13.15,2.89-26.25,4.27-39.37ZM80.04,162.87c-1.87,1.04-3.89,1.95-5.95,2.67,3.95.13,7.91.42,11.69.08,5.95-.55,11.96-2.19,17.01-5.54,1-.67,5.97-3.79,1.91-5.25-2.04-.74-4.22-1.32-6.4-1.34-5.16-.04-10.07,1.17-14.84,3.13-5.64,2.32-12.5,4.58-17.56,8.52,4.44-1.72,8.96-3.18,13.74-3.7.89-.09,1.14,1.04.41,1.44ZM83.94,110.46c-.38-2.44-1.08-5.26-2.62-7.27-3.26-4.29-6.85-.39-7.14,3.07-.61,7.27,2.02,18.06,7.09,24.09.16-.27.31-.54.47-.81.61-6.31,3.18-12.72,2.2-19.09ZM84.69,129.05c2.39-.09,4.63-1.43,6.9-2.15.95-.3,1.63.8.88,1.49-.11.11-.24.18-.36.28,2.53-.36,5.07-.56,7.53-.49.35.01.43.57.1.68-3.78,1.3-7.87,1.44-11.86,2.06-.28.1-.56.2-.84.29,7.08.81,14.24,1.72,21.25-.13,1.93-.51,5.72-1.52,5.85-4.09.24-4.93-6.1-5.69-9.72-5.68-7.46.04-13.69,3.15-19.53,7.4-.07.11-.13.22-.2.33ZM96.52,87.14c-.38-2.13-.92-4.39-1.99-6.3-2.5-4.48-6.73-.67-7.09,2.9-.71,6.92,1.78,14.51,5.56,20.65-.39-2.02-.48-4.1-.88-6.11-.1-.55.7-.64.84-.12.32,1.21.56,2.43.8,3.66.99,1.02,1.04,3.42,1.03,4.47,0,.2-.11.34-.25.44.25.35.49.72.75,1.06.09-.13.18-.26.27-.4.02-.5.06-1.01.1-1.51-1.2-4.64-2.26-9.51-2.58-14.19-.04-.65.94-.81,1-.15.29,3.27,1.27,6.51,2.04,9.76.57-4.69,1.25-9.35.4-14.13ZM98.43,107.26c.98-.32,2.02-.42,3.06-.63,2.28-.45,4.56-.96,6.9-.67.68.09.97,1,.4,1.43-1.62,1.22-3.93,1.89-6.17,2,9.76,1.46,26.46,2.99,25.15-4.87-1.48-8.85-20.6-4.4-27.64.2-.57.85-1.13,1.69-1.7,2.54ZM111.8,68.94c-.57-2.83-4.93-11.85-7.11-4.47-1.56,5.28.16,12.58,3.25,17.9-.2-.55-.34-1.14-.42-1.75-.06-.5.49-.95.94-.84,0-.04,0-.09.01-.13.11-.42.71-.27.78.09.12.62.22,1.24.32,1.87.41,1.03.63,2.1.54,3.29-.02.16-.1.26-.19.36.18.22.35.43.53.63.82-5.8,2.54-10.92,1.33-16.94ZM114.16,84.73c.34-.03.68-.1.94-.14.82-.13,1.63-.31,2.4-.62.58-.24,1.25.35.98.96-.3.68-.78,1.25-1.36,1.68,6.17.37,12.34,1.17,18.53-.19,1.61-.35,6.15-1.32,4.94-3.97-1.71-3.78-6.13-4.26-9.8-3.77-5.49.73-11.24,2.5-16.1,5.31-.18.25-.35.49-.53.74ZM126.24,48.21c-.45-2.18-.99-4.48-2.06-6.45-2-3.68-5.46-2.78-6.13,1.19-1.09,6.5-.23,17.5,4.25,23.49-.06-.36-.13-.71-.18-1.07-.17-.66-.33-1.33-.53-1.99-.08-.26,0-.53.16-.73-.16-1.28-.33-2.56-.56-3.83-.14-.74.99-.89,1.15-.17.36,1.61.65,3.24.97,4.87.33.65.57,1.33.73,2.03.14-.01.32.11.24.28-.06.14-.1.21-.14.28.03.16.07.31.09.47,1.28-6.11,3.33-11.98,2.01-18.36ZM126.56,69.2c.25-.01.5-.02.75-.03,1.4-.56,3.11-.86,4.42-1.64-.66.11-1.33.26-1.97.44-.69.19-1.39.4-2.06.66-.3.12-.92.28-1.15.57ZM127.29,67.73c.5-.29,1.05-.51,1.58-.69,1.5-.51,3.06-.93,4.65-1.01.59-.03.93.54.62,1.04-.58.92-1.51,1.59-2.56,2.07,3.96.05,7.9.16,11.85-.71,2.45-.54,5.62-1.09,7.53-2.9,2.47-2.33-2.19-3.62-3.91-3.92-4.53-.79-11.05-.86-15.85,1.34-1.32,1.58-2.61,3.18-3.9,4.78ZM141.83,38.38c.35-3.06,1.67-12.44-2.68-13.6-6.78-1.82-5.62,18.23-1.78,24.33-.19-.89-.17-1.84-.06-2.8,0-.22-.02-.44-.02-.67-.02-.84-.13-1.88.21-2.67.18-.4.75-.3.82.07.24-.04.49.06.59.35.53,1.64.7,3.33.4,4.98,1.28-3.19,2.11-6.55,2.51-9.99ZM140.43,52.13c1.51-.32,2.88-.99,4.3-1.62.54-.24,1.18.48.74.94-.81.86-1.78,1.5-2.8,2.01,3.85.43,7.66.69,11.58.12,2.05-.3,4.28-.56,6.18-1.45,2.6-1.22,4.94-4.23.86-5.82-6.57-2.57-14.01.47-19.76,4.58-.37.41-.73.82-1.09,1.23ZM153.18,24.67c.04-.99.23-11.36-2.56-9.86-3.78,2.03-2.69,8.68-2.22,12.14.14,1.07.53,4.92,1.42,7.64-.08-.72-.07-1.46-.09-2.19,0-.31-.01-.63-.02-.95-.14-1.08-.15-2.17.05-3.28.1-.6.87-.58,1.01-.02.38,1.48.3,3.05.4,4.56.05.73.14,1.47.16,2.21,1.47-3.04,1.72-7.05,1.85-10.26ZM160.29,36.2c.87.1.91,1.19.23,1.57-.02.01-.04.02-.06.03,1.73.5,3.47.96,5.31,1.06,1.99.12,12.47-.56,7.33-4.36-5.01-3.71-11.41-.95-16.94,1.2,1.43.07,2.87.36,4.14.5ZM164.58,11.41c-.65-4.07-3.93.08-4.25,1.95-.57,3.29-.2,6.59,0,9.9,0,.02,0,.04,0,.06.14-.78.29-1.55.39-2.29.07-.53.85-.43.82.09-.09,1.2-.12,2.52-.26,3.8,1.33-2.68,2.47-5.36,2.93-8.56.24-1.61.61-3.32.36-4.96ZM164.15,24.3c-.23.55-.47,1.08-.75,1.59.4-.37.79-.74,1.18-1.11-.25-.03-.45-.26-.43-.48ZM167.11,23.93c-.16.15-.31.32-.47.47,1.48.04,3.11-.54,4.52-.69.73-.08,1.34.98.61,1.42-.37.22-.76.45-1.16.66,1.11.35,2.23.66,3.43.77,1.97.18,5.12.47,6.84-.81,1.15-.87-.14-2.03-.97-2.65-1.61-1.2-3.5-1.7-5.5-1.43-2.57.36-4.91,1.34-7.29,2.26ZM180.01,3.15c-.76-3.54-5.03-.23-5.83,1.49-.95,2.01-1.61,4.13-2.12,6.3-.11.47-.19.99-.28,1.49.41-.81.85-1.6,1.34-2.34.21-.33.79-.1.71.28-.29,1.56-.78,3.1-1.33,4.62.76-.8,1.51-1.61,2.23-2.46,1.74-2.07,5.94-6.35,5.28-9.38ZM187.19,9.25c-1.53-.07-3.07.62-4.41,1.29-1.3.65-2.51,1.42-3.68,2.24.97-.37,1.92-.78,2.88-1.16.21-.08.45.13.35.35-.35.79-1.12,1.29-1.91,1.68,2.75-.4,5.54-.75,7.71-2.49,1-.8.26-1.85-.94-1.91ZM80.93,128.3c-.02.4-.51.45-.74.21-.14-.15-.26-.31-.35-.49-.16-.11-.3-.25-.35-.43-.72-2.64-.9-5.5-.83-8.22.02-.79,1.19-.63,1.2.13,0,1.13.11,2.23.26,3.33.26-.09.55-.03.67.3.57,1.58.61,2.91.11,4.49.03.23.06.45.05.69ZM60.51,102.42c0-.31.49-.31.53-.01,1,8.27.77,17.1.08,25.38-.02.25-.44.27-.46,0-.46-8.38-.37-16.99-.15-25.38ZM49.26,115.37c-1.83-4.47-3.24-9.14-4.85-13.68-.2-.57.63-.94.86-.38,1.8,4.51,3.83,9.07,4.66,13.87.07.39-.51.56-.66.19ZM35.64,127.51c-2.07-1.73-4.38-3.31-6.3-5.2-.41-.4.14-1.13.55-.72,1.92,1.88,4.92,3.12,6.14,5.61.11.23-.19.46-.39.3ZM30.47,175.74c.49,1.24.96,2.47,1.41,3.72.37,1.01.97,2.02,1.09,3.1.04.35-.39.67-.69.41-.95-.85-1.3-2.22-1.65-3.4-.36-1.19-.59-2.41-.89-3.61-.11-.42.56-.6.72-.2ZM94.34,203.92c-4.53,4.97-11.12,8.07-17.88,8.25-.18,0-.23-.25-.04-.28,6.27-1.11,13.08-3.49,17.51-8.29.23-.24.64.07.41.32ZM88.15,225.95c-5.84-1.6-11.5-3.82-17.36-5.37-.27-.07-.15-.53.11-.47,5.89,1.28,12.06,2.56,17.44,5.36.3.16.13.57-.19.48ZM78.74,243.03c-.22-.52.58-.87.81-.35,1.24,2.88,2.96,5.7,3.75,8.74.06.23-.29.38-.42.18-1.68-2.65-2.89-5.7-4.13-8.57ZM17.89,107.27c4.88,2.17,10.13,4.37,13.9,7.89.23.21.03.69-.3.53-.65-.32-1.24-.76-1.85-1.15-.14-.09-.12-.23-.02-.32-.26-.14-.49-.27-.65-.37-2.13-1.31-4.33-2.35-6.63-3.31-1.57-.65-3.15-1.5-4.74-2.28-.26.34-.65.59-1.21.6-1.7.02-3.2-.17-4.79-.6-.03,0-.05,0-.07,0,0,0,0,0,0-.01-.13-.03-.26-.04-.39-.08-1.61-.48-.9-3.01.71-2.82.12.01.23.04.34.06.2-.09.42-.14.69-.1,1.32.21,2.48.52,3.82.77.77.14,1.13.66,1.18,1.21Z"/></svg>