<?xml version="1.0" encoding="UTF-8"?><svg id="BACKGROUND_2" xmlns="http://www.w3.org/2000/svg" viewBox="0 0 186.84 51.32"><defs><style>.cls-1{fill:#fff;}.cls-2{fill:none;stroke:#fff;stroke-miterlimit:10;stroke-width:2.28px;}</style></defs><circle class="cls-2" cx="25.66" cy="25.66" r="24.52"/><g id="Out_line"><path class="cls-1" d="M47.7,27.11s-.08-.09-.12-.12l-2.42-1.94c-1.07-.86-2.32-1.47-3.65-1.78.02-.03.04-.05.06-.08,1.08-1.55,1.66-3.4,1.66-5.3v-1.9c0-.43-.35-.77-.77-.77h-2.13c-1.77,0-3.5.5-4.99,1.45-.49-.2-.99-.38-1.5-.51-.8-.64-1.77-1.05-2.79-1.16-1.15-2.76-4.32-4.06-7.08-2.91-.65.27-1.25.67-1.74,1.17-.59.59-1.03,1.31-1.3,2.11-1.53-1.72-3.64-2.82-5.93-3.08l-3.08-.34c-.42-.05-.81.26-.85.68,0,.06,0,.11,0,.17l.34,3.08c.11,1.04.4,2.05.85,2.99-.43.4-.84.83-1.21,1.3-1.25.46-2.39,1.2-3.34,2.14l-1.34,1.34c-.3.3-.3.79,0,1.09l1.51,1.51c.2.2.41.39.63.57-.13,2.41.48,4.81,1.76,6.86l.04-.02c.24,1.79,1.36,3.35,2.98,4.14l7.38,10.93c-.18.14-.28.34-.3.55.66.12,1.32.25,1.98.37,2.68.29,5.41.16,8.12.22l.07-.12c.2-.34.12-.78-.2-1.02l8.81-13.03c1.08-1.09,1.94-2.39,2.52-3.82h-.01c1.28-.33,2.47-.93,3.5-1.75l2.42-1.94c.33-.27.39-.75.12-1.09ZM40.33,16.76h1.36v1.13c-.01,3.03-1.78,5.78-4.54,7.04-.48-.4-1.03-.71-1.62-.92l3.65-3.65-1.09-1.09-2.41,2.41c.26-1.07.2-2.19-.18-3.21,1.37-1.1,3.07-1.7,4.83-1.7ZM34.02,18.94c.57,1.43.23,3.07-.86,4.16-.61.61-1.41,1-2.26,1.1.47-.61.8-1.32.98-2.07.97-1.4.63-3.33-.77-4.3-.51-.35-1.11-.55-1.74-.55-.11-.18-.23-.34-.36-.5,1.98-.79,4.23.18,5.02,2.17ZM30.84,33.88c-.82.23-1.67-.26-1.9-1.08-.15-.54,0-1.11.4-1.5.39-.39.97-.54,1.5-.4-.72.86-.72,2.12,0,2.98ZM30.4,29.3c-1.71.02-3.08,1.41-3.06,3.12,0,.62.2,1.23.55,1.74.17.75.51,1.46.98,2.07-2.12-.26-3.63-2.19-3.37-4.31.26-2.12,2.19-3.63,4.31-3.37.33.04.65.12.96.24-.13.16-.26.33-.36.5ZM19.95,30.85c-.35-.17-.75-.25-1.14-.22-.15-.13-.31-.25-.48-.35.02-.02.04-.05.07-.07.91-.91,2.37-.91,3.28,0s.91,2.37,0,3.28c-.19.19-.4.34-.64.45.55-1.15.06-2.54-1.09-3.09ZM18.48,28.31c-.53-.32-1.12-.55-1.73-.67,1.11-1.82,3.49-2.4,5.31-1.28.26.16.5.35.72.57.87.88,1.28,2.13,1.08,3.35-.16-.22-.34-.43-.53-.62-.1-.1-.2-.19-.31-.28-.08-.09-.15-.18-.24-.26-1.13-1.13-2.84-1.45-4.3-.8ZM18.4,32.39c.3-.3.79-.3,1.09,0s.3.79,0,1.09-.79.3-1.09,0c-.3-.3-.3-.79,0-1.09ZM18.59,35.43c1.75.71,3.76.04,4.75-1.57-.2,2.12-2.09,3.68-4.22,3.48-.89-.09-1.73-.48-2.36-1.12-.06-.06-.12-.13-.18-.19.72.04,1.43-.17,2.01-.59ZM23.32,37.31c.62-.62,1.07-1.37,1.33-2.2.73,1.25,1.93,2.16,3.33,2.52h-5.01c.12-.1.24-.21.35-.32ZM27.29,18.05c-1.28-.08-2.38.9-2.45,2.18-.02.39.05.78.22,1.14-1.16-.55-1.65-1.94-1.09-3.09.55-1.16,1.94-1.65,3.09-1.09.24.11.45.27.64.45.02.02.05.05.07.07-.17.1-.33.22-.48.35ZM27.7,20.91c-.3.3-.79.3-1.09,0-.3-.3-.3-.79,0-1.09.3-.3.79-.3,1.09,0,.3.3.3.79,0,1.09ZM27.5,22.86c.58.43,1.29.64,2.01.59-.06.07-.12.13-.18.19-1.51,1.51-3.96,1.51-5.47,0-.63-.63-1.03-1.47-1.12-2.36.98,1.62,2.99,2.28,4.75,1.57ZM28.93,21.85c.72-.86.72-2.12,0-2.98.82-.23,1.67.26,1.9,1.08.15.54,0,1.11-.4,1.5-.39.39-.97.54-1.5.4ZM25.43,13.27c1.23-.2,2.48.2,3.36,1.08.22.22.4.46.56.72-.61.12-1.2.35-1.73.67-1.46-.65-3.17-.33-4.3.8-.09.09-.16.17-.24.26-.11.09-.21.18-.31.28-.19.19-.37.4-.53.62-.34-2.11,1.08-4.09,3.19-4.44ZM26.63,26.33c.87,0,1.72-.22,2.49-.62-.22.45-.52.87-.88,1.22-.08.08-.17.16-.25.23-.75.19-1.45.54-2.05,1.02-.22.05-.45.08-.67.09-.59-2.26-2.57-3.88-4.9-4.01-.15-1.17.14-2.35.83-3.32.02,2.99,2.45,5.4,5.44,5.38ZM14.83,13.82c2.44.27,4.61,1.69,5.84,3.82.04.44.14.87.29,1.28-.13.11-.26.23-.38.35-.18.18-.35.38-.51.58l-3.86-3.86-1.09,1.09,4.15,4.15c-.16.37-.28.76-.36,1.15-3.21-.73-5.6-3.41-5.96-6.68l-.24-2.12,2.12.24ZM8.01,24.19l.8-.8c1.33-1.34,3.11-2.14,5-2.25.91.99,2.02,1.76,3.26,2.27h-4.89v1.55s5.17,0,5.17,0c-.97.56-1.75,1.4-2.22,2.42-2.28.2-4.53-.62-6.16-2.23l-.96-.96ZM10.64,30.93c-.36-.99-.56-2.03-.6-3.08.71.38,1.47.67,2.25.86-.74.58-1.31,1.35-1.65,2.22ZM11.83,32.47c.26-2.12,2.19-3.63,4.31-3.37.33.04.65.12.96.24-.13.16-.26.33-.36.5-1.71.02-3.08,1.41-3.06,3.12,0,.62.2,1.23.55,1.74.17.75.51,1.46.98,2.07-2.12-.26-3.63-2.19-3.37-4.31ZM16.35,31.45c.27-.07.55-.07.82,0-.72.86-.72,2.12,0,2.98-.82.23-1.67-.26-1.9-1.08-.23-.82.26-1.67,1.08-1.9ZM23.1,48.57h-.66l-6.91-10.22c.11,0,.23,0,.34,0,1.38.55,2.85.83,4.33.83h2.9v9.39ZM28.59,48.57h-3.94v-9.39h6.18c1.66,0,3.29-.35,4.8-1.02l-7.04,10.41ZM35.9,35.67c-1.51,1.51-3.96,1.51-5.47,0-.06-.06-.12-.13-.18-.19.72.04,1.43-.17,2.01-.59,1.75.71,3.76.04,4.75-1.57-.08.89-.48,1.73-1.11,2.36ZM33.62,30.3c-.35-.17-.75-.25-1.14-.22-.15-.13-.31-.25-.48-.35.02-.02.04-.05.07-.07.91-.91,2.37-.91,3.28,0,.91.91.91,2.37,0,3.28-.19.19-.4.34-.64.45.55-1.15.06-2.54-1.09-3.09ZM32.07,31.85c.3-.3.79-.3,1.09,0,.3.3.3.79,0,1.09-.3.3-.79.3-1.09,0s-.3-.79,0-1.09ZM37.52,29.73c-.16-.22-.34-.43-.53-.62-.1-.1-.2-.19-.31-.28-.08-.09-.15-.18-.24-.26-1.13-1.13-2.84-1.45-4.3-.8-.53-.32-1.12-.55-1.73-.67,1.11-1.82,3.49-2.4,5.31-1.28,1.34.82,2.05,2.37,1.8,3.92ZM38.42,34.22c.17-.69.2-1.4.09-2.1.44.04.89.05,1.34.03-.39.75-.87,1.44-1.42,2.07ZM44.2,28.92c-1.49,1.19-3.38,1.79-5.28,1.68.2-.73.26-1.49.15-2.24h2.62s0-1.55,0-1.55h-3.08c-.11-.24-.24-.47-.38-.68.77-.4,1.48-.91,2.12-1.51,1.41.18,2.75.74,3.86,1.63l1.66,1.33-1.66,1.33Z"/></g><path class="cls-1" d="M71.59,20.59l.16,3.33h-.29c-.78-2.3-1.63-2.98-3.68-2.98h-.45v5.2h.72c1.04,0,1.73-.82,1.98-2.1h.24v4.74h-.27c-.35-1.62-.91-2.23-1.95-2.23h-.72v4.88h1.99v.35h-6.05v-.35h.94v-10.5h-.94v-.35h8.32Z"/><path class="cls-1" d="M78.63,20.59v.35h-1.7v10.5h.58c1.99,0,2.87-1.44,3.81-3.39h.34l-.3,3.75h-8.48v-.35h.94v-10.5h-.94v-.35h5.76Z"/><path class="cls-1" d="M88.17,20.41c3.44,0,5.19,2.11,5.19,5.75s-1.68,5.79-5.38,5.79-5.28-2.06-5.28-5.59,1.9-5.96,5.47-5.96ZM90.05,25.66c0-3.28-.1-4.91-2.02-4.91s-2.06,1.7-2.06,4.98v1.15c0,3.01.19,4.74,2.06,4.74s2.02-1.55,2.02-4.77v-1.18Z"/><path class="cls-1" d="M101.37,23.95l-.96-3.06h-.91v-.3h4.96v.3h-.94l2.39,7.57,1.92-7.57h-1.62v-.3h3.2v.3h-1.06l-2.95,11.06h-1.42l-2.37-7.24-2.08,7.24h-1.39l-4.03-11.06h-.75v-.3h5.2v.3h-1.12l2.61,7.67,1.33-4.61Z"/><path class="cls-1" d="M118.28,20.59l.16,3.17h-.29c-.88-2.1-1.63-2.82-3.57-2.82h-.56v4.95h.54c1.04,0,1.71-.88,1.98-2.1h.24v4.74h-.27c-.38-1.6-.99-2.22-2.11-2.22h-.38v5.14h.61c2.03,0,3.44-1.39,3.92-3.14h.32l-.13,3.49h-8.79v-.35h.94v-10.5h-.94v-.35h8.32Z"/><path class="cls-1" d="M124.13,26.13v5.36h1.04v.3h-5.2v-.3h1.04v-10.6h-1.04v-.3h4.83c3.34,0,4.95.35,4.95,2.69,0,1.95-1.02,2.53-2.72,2.67v.05c1.73.22,2.32.9,2.32,2.75v.85c0,1.04.05,1.41.5,1.41.29,0,.53-.13.74-1.38l.27.03c-.24,1.83-.69,2.29-2.18,2.29-2.02,0-2.61-.67-2.61-2.93v-1.17c0-1.14-.22-1.73-1.09-1.73h-.85ZM124.13,25.82h.51c1.18,0,1.79-.66,1.79-2.38v-.46c0-1.79-.66-2.08-1.78-2.08h-.53v4.93Z"/><path class="cls-1" d="M141.56,29.94c0-1.33-.99-1.76-2.96-2.32-1.94-.54-3.41-1.31-3.41-3.73,0-1.79,1.33-3.47,3.79-3.47,1.47,0,2.3.5,2.85.5.27,0,.35-.11.46-.32h.18l.11,3.23h-.26c-.82-1.47-1.9-3.07-3.55-3.07-1.15,0-1.95.67-1.95,1.62,0,1.18,1.09,1.58,2.71,2.02,1.78.48,3.75,1.09,3.75,3.75,0,2.3-1.57,3.83-3.92,3.83-1.55,0-2.9-.48-3.35-.48-.26,0-.35.18-.48.48h-.22l-.16-3.81h.27c.8,1.6,2.35,3.47,4.11,3.47.96,0,2.03-.51,2.03-1.68Z"/><path class="cls-1" d="M153.67,24.61h-.3c-.86-2.61-1.36-3.68-2.82-3.68h-.19v10.53h1.36v.34h-5.84v-.34h1.36v-10.53h-.21c-1.46,0-2,1.2-2.82,3.68h-.3l.16-4.02h9.44l.16,4.02Z"/><path class="cls-1" d="M160.04,20.41c3.44,0,5.19,2.11,5.19,5.75s-1.68,5.79-5.38,5.79-5.28-2.06-5.28-5.59,1.91-5.96,5.47-5.96ZM161.93,25.66c0-3.28-.1-4.91-2.02-4.91s-2.06,1.7-2.06,4.98v1.15c0,3.01.19,4.74,2.06,4.74s2.02-1.55,2.02-4.77v-1.18Z"/><path class="cls-1" d="M170.4,26.13v5.36h1.04v.3h-5.2v-.3h1.04v-10.6h-1.04v-.3h4.83c3.34,0,4.95.35,4.95,2.69,0,1.95-1.02,2.53-2.72,2.67v.05c1.73.22,2.32.9,2.32,2.75v.85c0,1.04.05,1.41.5,1.41.29,0,.53-.13.74-1.38l.27.03c-.24,1.83-.69,2.29-2.18,2.29-2.02,0-2.61-.67-2.61-2.93v-1.17c0-1.14-.22-1.73-1.09-1.73h-.85ZM170.4,25.82h.51c1.18,0,1.79-.66,1.79-2.38v-.46c0-1.79-.66-2.08-1.78-2.08h-.53v4.93Z"/><path class="cls-1" d="M186.25,20.59l.16,3.17h-.29c-.88-2.1-1.63-2.82-3.57-2.82h-.56v4.95h.54c1.04,0,1.71-.88,1.98-2.1h.24v4.74h-.27c-.38-1.6-.99-2.22-2.11-2.22h-.38v5.14h.61c2.03,0,3.44-1.39,3.92-3.14h.32l-.13,3.49h-8.79v-.35h.94v-10.5h-.94v-.35h8.32Z"/></svg>